<?xml version="1.0" encoding="utf-8"?>
<!-- Generator: Adobe Illustrator 16.0.0, SVG Export Plug-In . SVG Version: 6.00 Build 0)  -->
<!DOCTYPE svg PUBLIC "-//W3C//DTD SVG 1.1//EN" "http://www.w3.org/Graphics/SVG/1.1/DTD/svg11.dtd">
<svg version="1.1" id="svg2" xmlns:svg="http://www.w3.org/2000/svg"
	 xmlns="http://www.w3.org/2000/svg" xmlns:xlink="http://www.w3.org/1999/xlink" x="0px" y="0px" width="2168px" height="3300px"
	 viewBox="0 0 2168 3300" enable-background="new 0 0 2168 3300" xml:space="preserve">
<g id="flowRoot4425">
</g>
<rect id="rect3936" fill="#F6E1B9" width="2168" height="3300"/>
<g id="g2254">
	<path id="path2252" fill="#F2F38C" stroke="#000000" d="M1255.635,2284.574l34.315,19.497l24.177,9.359l63.951,2.339l23.397-6.239
		l70.19,0.78l34.315,16.378l17.158,5.459l10.139,7.799h27.981l12.593-4.66l13.695-0.248l86.892-40.326
		c12.738-12.738,25.477-25.477,38.215-38.215c-8.319-14.559-18.195-28.331-24.957-43.674c-6.166-13.994-10.524-28.792-14.038-43.675
		c-3.928-16.64-2.875-34.321-7.799-50.693c-6.264-20.83-23.793-37.805-27.296-59.272c-6.992-42.84,9.358-86.309,14.038-129.463
		c-2.34-18.457-4.68-36.915-7.02-55.373l-49.913-13.258l-66.291,46.014l-74.871,25.737l-92.808,31.195l-121.664-5.459l-2.34,29.636
		L1255.635,2284.574L1255.635,2284.574z"/>
	<path id="path2250" fill="#7BC4A0" stroke="#000000" d="M1238.477,1958.577l37.436,9.358l84.229-1.56l70.19-18.718l21.837-12.479
		l77.99-26.517l67.071-46.794c0,0-32.085-23.415-40.555-40.555c-6.972-14.107-10.216-31.568-6.239-46.794
		c2.628-10.061,9.735-19.717,18.718-24.956c24.454-14.266,56.584-4.813,84.229-10.919c10.116-2.234,22.311-2.033,29.636-9.358
		c7.326-7.325,7.48-19.448,9.359-29.636c1.605-8.708,3.117-17.801,1.56-26.517c-1.598-8.938-8.72-16.147-10.919-24.957
		c-1.642-6.577,0.349-13.772-1.56-20.277c-2.161-7.366-10.918-20.277-10.918-20.277l-46.794-62.392l-301.041,3.119l-88.908,88.908
		l-18.717,88.909l17.157,77.989l-17.157,59.272L1238.477,1958.577L1238.477,1958.577z"/>
	<path id="path2248" fill="#EDBD3D" stroke="#000000" d="M480.417,2253.378c6.954-22.219,20.568-42.043,34.315-60.832
		c12.164-16.627,25.938-32.477,42.114-45.234c21.571-17.012,50.796-22.787,71.75-40.555c15.793-13.391,27.456-31.161,38.995-48.354
		c16.211-24.151,16.81-62.084,42.114-76.43c12.673-7.184,29.146,2.633,43.675,1.561c14.238-1.052,30.867,0.995,42.114-7.8
		c9.897-7.739,5.787-26.466,15.598-34.315c9.953-7.963,24.706-8.446,37.436-7.799c22.334,1.137,42.228,14.97,63.951,20.277
		c22.845,5.582,43.47,13.188,69.505,12.091c61.804-2.605,128.919-36.004,194.101-51.086c18.08-4.183,39.319-21.46,54.593-10.918
		c15.617,10.778,9.665,37.179,9.358,56.152c-0.214,13.254,0.974,29.058-7.799,38.995c-9.793,11.093-32.688,2.631-42.114,14.038
		c-135.656,164.151,37.158,458.31-84.229,633.276c-10.077,14.524-32.854,14.087-46.794,24.957
		c-17.707,13.807-27.427,36.236-45.234,49.913c-63.072,48.441-147.204,63.263-212.132,109.186
		c-71.168,50.337-130.496,115.95-190.295,179.376c-20.002,21.216-33.646,48.535-56.152,67.071
		c-26.586,21.896-59.017,35.878-90.469,49.913c-33.185,14.81-66.723,32.977-102.946,35.876
		c-32.635,2.612-71.987,4.308-96.707-17.158c-22.719-19.728-23.889-55.993-28.076-85.788c-3.911-27.822-0.723-56.398,3.119-84.229
		c4.536-32.854,12.719-65.308,23.397-96.707c18.136-53.329,44.356-103.591,68.631-154.42
		c21.646-45.323,47.287-88.677,68.631-134.143c20.191-43.013,43.379-85.255,56.152-131.022c8.045-28.825,9.007-59.184,12.479-88.908
		C474.041,2331.462,468.718,2290.754,480.417,2253.378L480.417,2253.378z"/>
	<path id="path6349" fill="#E4F2F7" stroke="#000000" d="M1233.797,1909.443l-39.774,7.019l-19.497,2.34l-50.693,24.177
		l-49.134,24.957c0,0-40.06,10.827-60.052,16.378c-11.975,3.324-23.53,11.563-35.876,10.139
		c-25.083-2.894-42.99-26.926-66.291-36.655c-21.254-8.876-43.336-17.603-66.291-19.497c-10.701-0.884-31.976,3.899-31.976,3.899
		l-14.818-31.196l40.555-23.396c0,0,79.211-35.828,121.664-42.115c13.125-1.943,26.738-0.912,39.774,1.561
		c23.264,4.411,67.071,23.396,67.071,23.396l25.736,13.259l32.756-2.34l69.411-28.076l21.058,1.56l14.817,27.296L1233.797,1909.443
		L1233.797,1909.443z"/>
	<path id="path6347" fill="#44916C" stroke="#000000" d="M568.545,1666.115l21.837,1.56l69.411-22.616h8.579l23.396,69.41
		l-7.019,21.837l-1.561,48.354l7.8,24.956v56.153l3.899,17.938l7.019,12.479l17.158-2.34l13.258-20.277l74.87,0.779l37.436-8.578
		l23.396,14.817l-29.636,10.139l-35.876,21.838l14.818,31.195c0,0-8.729,27.15-19.497,35.096
		c-12.187,8.989-44.454,9.358-44.454,9.358s-98.306,8.028-144.281-6.239c-4.685-1.453-8.804-4.55-12.479-7.799
		c-13.293-11.751-33.535-41.334-33.535-41.334s-20.136-23.693-24.177-38.215c-3.276-11.774,1.259-24.443,0.779-36.655
		c-0.307-7.832,0.08-15.942-2.34-23.397c-1.114-3.435-2.327-7.56-5.459-9.358c-4.959-2.849-11.477-0.659-17.157,0
		c-4.51,0.523-13.259,3.119-13.259,3.119l26.517-58.492l4.68-55.372l21.837-26.517L568.545,1666.115L568.545,1666.115z"/>
	<path id="path6345" fill="#FFFCC8" stroke="#000000" d="M664.473,1644.278l20.277-2.34l21.057-20.277l15.599-3.899H756.5
		l35.876,6.239l47.805-26.564l17.004,3.443l27.219,2.063l14.818,12.479l42.114,12.479h22.617l20.277-11.698l8.579-18.718
		l-5.754-31.254l29.931-11.641h35.095l28.077,31.196l27.296,13.258l24.957,27.297l12.478,42.895l-6.238,46.014l8.578,25.736
		l-31.976,79.55l-1.56,25.736l13.258,36.655l-34.315,3.119l-28.856-14.817l-65.511-21.837l-36.655-1.561l-91.248,31.977
		l-27.297-11.699l-39.774,8.579c0,0-31.189-2.984-46.794-2.34c-7.861,0.325-16.663-0.949-23.396,3.12
		c-6.544,3.954-6.794,14.635-13.259,18.718c-5.131,3.24-12.39,5.581-17.938,3.119c-5.34-2.369-7.189-9.394-9.358-14.818
		c-2.953-7.385-3.838-15.487-4.68-23.396c-1.871-17.58-0.78-53.033-0.78-53.033l-6.239-22.616l0.78-49.134l7.02-24.177
		l-15.599-42.114L664.473,1644.278L664.473,1644.278z"/>
	<path id="path6285" fill="#BA8FBA" stroke="#000000" d="M1002.168,932.232l39.774,0.779L1063,962.648l14.038,47.573l0.78,51.474
		l-22.617,7.799l-21.838,24.177l-14.817,23.396l-16.378,15.599h-47.574l-36.702-12.936l-20.324-24.405l21.151-56.247l13.259-22.617
		l38.994-4.68l0.78-41.334l6.239-20.277L1002.168,932.232z"/>
	<path id="path6287" fill="#EB2629" stroke="#000000" d="M1250.955,1082.752l-54.593-31.195l-42.114-6.239l-24.957,11.698
		l-33.535-3.12l-17.938,8.579l-23.397,7.02l-21.058,24.177l-14.817,23.396l-16.606,15.275l-37.207,0.275l6.239,13.306l38.995-3.12
		l16.378-6.238l10.919,5.459l6.238,39.774l20.277,33.536l17.158,2.34l24.957,0.779l18.717-6.239l32.756,2.34l29.637,13.259
		l67.851-1.561l3.899-17.157l13.258-17.158l-12.478-60.052l2.339-28.076L1250.955,1082.752L1250.955,1082.752z"/>
	<path id="path4438" fill="#F8C300" stroke="#000000" d="M1254.044,1084.191l-58.456-31.985l-40.809-6.618l-25.367,11.581
		l-34.191-2.757l-17.647,7.72v-50.734l-14.338-48.53l-20.956-29.779l-40.809-0.552l-20.956-82.169l13.235-52.94l31.985-94.854
		l43.015-106.985l31.985-54.044l33.088-121.324l27.573-70.588l29.78-57.353c0,0,13.81,17.092,22.059,24.265
		c7.388,6.423,15.69,11.819,24.265,16.544c10.527,5.802,21.718,10.44,33.088,14.338c12.568,4.309,25.521,7.604,38.604,9.926
		c14.552,2.583,44.117,4.412,44.117,4.412v147.794l-12.132,23.162l-5.515,102.573l-7.721,84.927l3.309,80.515l-4.412,52.941
		l-9.65,33.088c-1.103-1.838-3.97-4.018-5.325-5.334c-2.934-2.847-7.473-5.533-10.943-6.228c-5.041-1.008-13.038-1.122-18.198-1.122
		c-7.605,0-6.354,2.203-10.734,7.578c-5.3,6.504-5.924,5.004-10.82,7.331c-4.516,2.146-8.711,3.233-12.826,4.612
		c-3.582,1.2-7.665,3.123-10.013,5.57c-5.273,5.497-4.575,4.403-8.271,7.721c-4.819,4.324-4.688,6.446-4.688,11.856
		c0,5.515-1.169,11.81-1.169,17.324s-0.391,10.249-0.391,15.764c0,5.269,0.474,12.446,2.663,15.441
		c2.619,3.582,7.185,4.235,9.1,7.721c2.529,4.604,4.623,8.371,7.169,13.235c3.241,6.193,4.86,3.433,8.843,11.353
		c3.656,7.271,4.983,6.204,7.331,11.581c2.632,6.029,3.559,5.881,7.264,10.154c2.387,2.754-0.276,13.728-0.276,16.544
		c0,6.329,0.901,10.883-0.827,14.339c-2.411,4.823-9.472,7.834-10.478,11.856
		C1253.396,1068.857,1258.079,1078.812,1254.044,1084.191L1254.044,1084.191z"/>
	<path id="path6301" fill="#E8DE12" stroke="#000000" d="M1261.765,1107.353l22.059-2.205l11.029-28.677l31.985-5.515l58.456-29.779
		l39.706-29.779l13.511-4.137l-1.378-19.025l52.94-12.133l37.5-1.103l44.118-9.927l37.5-16.544l34.191-5.515l176.47,11.029
		c0,0,102.297-6.443,148.897,11.029c6.885,2.582,13.692,7.037,17.647,13.235c21.02,32.947,19.111,75.966,24.265,114.706
		c5.194,39.057,8.766,78.674,6.617,118.015c-1.586,29.029-7.204,57.847-14.338,86.029c-6.391,25.247-12.412,51.306-25.368,73.897
		c-19.064,33.243-60.108,51.822-75,87.132c-16.349,38.767,2.265,85.818-11.029,125.735c-3.965,11.906-19.853,31.985-19.853,31.985
		l-43.566-4.136l-19.025-17.096l-26.747-7.444l-17.646,8.823l-11.03,11.029l-82.72,1.104l-27.574-11.03l-12.684-17.095l-5.79-27.298
		l-33.364,11.305h-37.776l-16.268-15.441h-9.927L1455.882,1575h-28.677l-62.867-8.823l-40.258-15.166l-36.948,44.945l-1.103,15.441
		l-22.059,22.059l-26.471,4.688l-18.75,78.033l3.309,40.809l9.927,24.265l-3.31,43.015l-13.235,31.985h-20.956l-67.279,26.471
		l-15.44-37.5l1.103-24.265l31.985-82.721c0,0-7.801-14.963-8.823-23.162c-1.971-15.792,6.891-31.57,5.515-47.426
		c-1.228-14.139-5.001-28.54-12.133-40.809c-6.142-10.566-15.769-18.907-25.367-26.471c-8.023-6.322-18.381-9.205-26.471-15.441
		c-10.295-7.936-15.564-22.6-27.573-27.573c-10.19-4.222-22.71-3.732-33.089,0c-10.32,3.711-21.282,10.776-25.367,20.956
		c-2.344,5.84,3.149,12.527,2.206,18.75c-1.087,7.159-3.936,14.51-8.824,19.853c-5.109,5.585-12.571,8.957-19.853,11.029
		c-7.435,2.116-15.494,2.077-23.162,1.103c-14.795-1.879-29.502-6.363-42.738-13.234c-5.874-3.05-9.373-10.248-15.718-12.133
		c-8.838-2.626-18.433,3.416-27.573,2.206c-5.418-0.718-10.442-7.724-15.441-5.515c-17.288,7.64-45.22,21.507-45.22,21.507
		l-19.854-1.378l-39.706-4.412l-30.331,5.791l-24.815,20.68l-12.133,1.93l-77.206,23.162l-23.161-0.275l20.956-54.872l19.301-80.515
		l15.993-86.029l18.75-80.515l9.65-38.603l27.85-129.044l22.059-126.563l16.819-29.229l18.475-100.092l22.059-12.132l16.545,8.823
		l13.234-5.515l10.479,29.504l15.992,4.688l21.232,18.474l13.511,21.783l15.992,32.537l2.206,26.194l28.677,27.85l20.956,25.367
		l35.294,13.236h10.754l6.893,13.786l37.776-3.584l17.371-6.618l10.754,6.066l5.79,39.43l22.059,34.191l41.013,2.257l17.443-6.117
		l34.09,1.307l28.176,14.338l71.19-2.104l-1.103-15.746l15.441-15.44l-4.412-28.677l-8.823-31.985L1261.765,1107.353
		L1261.765,1107.353z"/>
	<path id="path5058" fill="#B8DB7C" stroke="#000000" d="M1191.177,291.177c0,0-13.495-19.014-17.647-29.78
		c-6.616-17.154-4.321-36.925-11.029-54.044c-4.395-11.213-10.094-22.51-18.75-30.882c-4.852-4.692-12.152-6.008-17.647-9.927
		c-3.604-2.57-6.104-6.59-9.926-8.823c-5.37-3.139-17.647-6.066-17.647-6.066l-27.573,79.963l-17.647,36.397l-17.646,19.302
		L1021.323,300l-19.853,34.743c0,0-27.571,87.19-45.772,129.044c-4.131,9.5-12.168,17.443-14.338,27.573
		c-3.355,15.663,3.62,31.982,2.757,47.978c-0.421,7.816-0.698,16.002-3.859,23.162c-7.087,16.046-20.192,28.898-32.537,41.36
		c-15.921,16.071-52.941,42.463-52.941,42.463s-1.635,41.312-4.412,61.765c-2.068,15.236-7.749,29.904-9.099,45.221
		c-1.065,12.089,3.142,24.484,0.827,36.397C839.347,803.852,825,829.412,825,829.412l9.375,32.536l-1.654,24.816l-13.235,29.779
		l-17.096,12.133l-12.132,4.963l10.478,29.229l18.198,7.169l17.096,14.338l24.265,40.257l7.721,40.258l17.096,19.577l12.684,10.754
		l20.956-55.147l13.235-23.161l39.706-5.515l1.103-39.706l5.515-20.956l24.816-18.75l-22.61-82.721l13.235-54.044l33.088-93.75
		l41.912-106.985l31.985-54.044l33.089-120.221l27.573-71.691L1191.177,291.177L1191.177,291.177z"/>
	<path id="path2246" fill="#F0D91A" stroke="#000000" d="M418.025,2613.69c-2.383-20.197,25.36-32.528,32.755-51.473
		c7.491-19.191,4.151-41.374,10.919-60.832c5.425-15.6,17.854-28.117,23.396-43.675c7.289-20.46,11.825-42.242,12.479-63.951
		c0.474-15.729-11.285-31.89-6.239-46.794c4.716-13.93,19.713-22.01,31.196-31.196c23.541-18.833,46.424-51.267,76.43-48.354
		c26.357,2.559,41.723,33.485,57.713,54.593c42.551,56.17,76.706,120.088,98.267,187.176
		c19.596,60.973,29.926,126.341,26.517,190.295c-0.913,17.125-1.666,36.602-12.479,49.913
		c-12.021,14.801-32.889,20.688-51.473,24.956c-17.736,4.073-36.504,1.986-54.593,0c-23.825-2.615-49.305-3.841-70.191-15.598
		c-15.062-8.478-21.164-28.363-35.875-37.435c-12.039-7.424-28.379-5.281-40.555-12.479
		C477.043,2685.636,423.365,2658.971,418.025,2613.69L418.025,2613.69z"/>
</g>
<path id="path6245" fill="#FFFFFF" d="M1229.461,1985.744c-23.26,8.338-59.523,1.987-58.823,37.205
	c-1.155,27.895-25.799,49.815-23.847,79.779c-15.603,27.78-14.729,61.015-23.342,90.397c-14.968,26.802,8.513,65.776-13.246,87.828
	c-13.913,29.151-4.562,62.031-7.086,93.179c2.144,34.728,7.897,70.701-3.541,104.628c-0.568,27.086-7.638,52.473-15.131,78.61
	c-9.923,22.688,0.411,40.964,8.343,60.69c14.07,21.332,20.94,46.685,29.164,71.301c19.857,14.446,56.552,9.77,79.432,1.409
	c13.516-12.994,12.891-34.235,29.636-43.675c-2.865-24.156-10.583-50.654,2.316-74.166c7.861-29.748-30.413-41.296-51.173-51.061
	c-31.842-3.252-40.561-38.616-15.857-58.215c5.566-10.798,21.415-13.598,21.003-25.992c10.914,13.813,17.356,34.904,39.032,20.699
	c21.399-22.993,14.813-57.242,17.317-86.218c18.553-28.325,11.005-63.063,12.318-95.499c0.762-35.936-0.844-72.272-0.774-107.745
	c-3.163-28.833,17.063-50.101,11.827-78.735c-0.684-26.984,16.459-47.902,15.751-74.304
	C1287.623,1984.808,1251.36,1981.28,1229.461,1985.744L1229.461,1985.744z"/>
<path id="path5060" fill="#FFFFFF" d="M1303.223,657.713l8.823,11.581l0.552,15.441l-7.721,20.955l-13.235-12.132l-7.721-12.133
	l2.206-17.646L1303.223,657.713z"/>
<path id="path3183" fill="#C6ECFF" stroke="#0978AB" stroke-width="2" d="M1302.68,656.837c5.434,6.028,9.358,8.336,9.358,20.277
	c0,9.174-1.312,13.046-3.119,20.277c-2.992,11.966-9.644,2.835-12.479,0c-5.315-5.315-7.755-6.15-10.919-12.479
	c-2.899-5.799-1.342-14.91,0-20.277C1286.879,659.205,1296.36,658.416,1302.68,656.837L1302.68,656.837z"/>
<path id="path3235" fill="none" stroke="#0978AB" stroke-width="5" d="M1237.294,1636.996c19.976,4.548,39.782-13.067,49.263-27.756
	c-4.284-19.62,20.443-27.663,26.841-45.038c11.118-27.191,33.071-0.707,50.141,1.477c25.087,3.609,48.846,11.618,74.491,9.553
	c23.089,0.094,44.978-7.784,65.392-16.991c17.456-6.053,36.617-18.468,47.381,4.219c19.795,5.934,42.874,0.549,62.596-4.875
	c24.158-18.197,9.296,23.845,23.161,31.985c14.045,17.522,43.168,20.627,65.35,18.75c22.589-1.445,50.105,6.593,65.699-13.986
	c17.099-12.854,45.536-3.792,57.114,14.327c0.551,2.304,3.118,2.454,4.853,1.865"/>
<path id="path2166" fill="#C6ECFF" stroke="#0978AB" stroke-width="2" d="M1229.369,1985.781
	c-23.259,8.338-59.522,1.987-58.822,37.205c-1.155,27.895-25.799,49.815-23.847,79.779c-15.604,27.78-14.729,61.015-23.342,90.397
	c-14.968,26.802,8.513,65.776-13.247,87.828c-13.912,29.151-4.561,62.031-7.086,93.179c2.144,34.728,7.898,70.701-3.54,104.628
	c-0.569,27.086-7.638,52.473-15.131,78.61c-9.923,22.688,0.411,40.964,8.343,60.69c14.07,21.332,20.94,46.685,29.164,71.301
	c19.856,14.446,56.552,9.77,79.432,1.409c13.516-12.994,12.891-34.235,29.636-43.675c-2.866-24.156-10.583-50.654,2.316-74.166
	c7.86-29.748-30.413-41.296-51.173-51.061c-31.842-3.252-40.561-38.616-15.857-58.215c5.566-10.798,21.415-13.598,21.003-25.992
	c10.914,13.813,17.356,34.904,39.032,20.699c21.399-22.993,14.813-57.242,17.317-86.218c18.552-28.325,11.004-63.063,12.318-95.499
	c0.762-35.936-0.845-72.272-0.774-107.745c-3.163-28.833,17.063-50.101,11.827-78.735c-0.684-26.984,16.458-47.902,15.751-74.304
	C1287.532,1984.845,1251.27,1981.317,1229.369,1985.781L1229.369,1985.781z"/>
<path id="path3155" fill="none" stroke="#0978AB" stroke-width="11" d="M1235.616,1983.489c10.381-27.214-5.294-68.99-3.486-103.379
	c-30.426-19.502-2.092-49.354,0.02-75.607c3.299-34.59-21.762-62.978-12.139-99.484c4.34-30.99,16.082-60.775,21.092-91.24
	c10.604-31.992,19.226-66.893,11.692-100.436c-0.216-35.51-4.754-70.651-7.828-105.855c-2.5-36.361,9.96-71.94,6.854-108.153
	c26.233-25.486-2.949-61.711,6.338-88.77c31.792-16.791-5.022-57.356,2.168-84.795c11.305-31.576-32.067-56.19,7.306-78.527"/>
<path id="path3160" fill="#C6ECFF" stroke="#0978AB" stroke-width="2" d="M1316.718,957.877c-2.238,5.777-0.871,12.369-0.933,18.564
	c-0.103,10.244,2.874,20.662,0.928,30.721c-1.856,9.603-3.384,20.703-11.758,26.882c-5.109,5.906-12.105,9.431-19.808,10.547
	c-5.999,0.551-14.085,7.224-18.774,1.077c-0.631-7.417,0.217-14.86,0.432-22.28c-4.673-7.094-9.609-14.009-13.55-21.554
	c-3.813-5.821-9.508-10.292-12.028-16.975c-2.686-7.671-8.664-13.257-15.102-17.884c-6.358-6.326-2.161-16.612-2.995-24.6
	c0.483-9.073-1.041-18.4,0.915-27.303c2.888-6.784,9.837-10.487,13.99-16.405c5.221-5.581,13.607-5.313,20.099-8.711
	c7.509-1.174,13.326-5.727,16.422-12.681c3.738-5.603,11.872-2.254,17.507-2.611c7.368,0.238,15.659,0.412,20.102,7.407
	c5.418,4.487,10.735,9.355,13.029,16.257c5.741,11.312,5.678,24.651,3.496,36.768c-1.314,7.299-5.697,13.778-9.699,20.021
	C1318.348,956.121,1317.148,956.766,1316.718,957.877L1316.718,957.877z"/>
<path id="path3181" fill="none" stroke="#0978AB" stroke-width="8" d="M1303.593,702.252c-6.079,8.425,1.704,13.408,3.767,21.655
	c1.7,6.803,0,16.345,0,23.397c0,7.799,0,15.598,0,23.396c0,4.451-4.68,12.406-4.68,20.277c0,7.8,0,15.599,0,23.397
	s0,15.598,0,23.396s0,15.599,0,23.397c0,4.679,1.379,10.737,0,14.038"/>
<path id="path3193" fill="none" stroke="#0978AB" stroke-width="6" d="M1379.109,310.562c-10.139,7.916-12.609,23.435-25.987,27.8
	c-14.764,6.216-12.097,25.528-23.926,34.592c-9.406,10.812-10.045,26.442-13.196,39.849c0.938,12.618,1.296,25.306-5.521,36.581
	c-0.771,13.642-2.637,27.018-4.661,40.53c1.405,14.158-9.013,25.418-10.937,39.02c-1.682,13.074,0.814,26.311,0,39.482
	c0.271,19.874-1.117,39.912,2.313,59.565c0.651,8.536-1.316,20.829,2.918,29.596"/>
<path id="path3196" fill="none" stroke="#0978AB" stroke-width="4" d="M1259.005,466.542c0.333,9.146-0.663,18.343,0.582,27.447
	c4.177,7.35,9.067,14.607,9.663,23.303c2.215,9.252,6.377,18.903,3.404,28.479c-4.737,6.58-13.188,12.14-11.174,21.482
	c0.552,13.984,0.892,27.966,0.666,41.961c0.049,6.073,0.392,12.22,2.088,18.085c7.387,2.179,17.129,4.965,15.127,14.794
	c0.854,7.118,4.977,13.027,7.721,19.422"/>
<path id="path3200" fill="none" stroke="#0978AB" stroke-width="3.8" d="M1294.691,547.651c6.768,1.63,17.194-0.313,23.642-2.457
	c6.29-2.725,11.589-7.669,18.533-8.836c7.267-2.022,14.048-5.539,20.509-9.357c3.904-3.269,8.445-6.566,13.838-5.866
	c16.2-0.085,32.41,0.17,48.604-0.13c4.049-0.167,7.691-2.01,10.766-4.55"/>
<path id="path3202" fill="none" stroke="#0978AB" stroke-width="4" d="M1332.315,507.097c2.32-0.366,2.104,2.358,0.935,3.54
	c-3.064,4.765-7.385,8.689-9.832,13.852c-1.327,3.386-1.025,7.126-0.879,10.684c0.148,2.599,0.408,5.194,0.418,7.8"/>
<path id="path4207" fill="none" stroke="#0978AB" stroke-width="6" d="M1261.559,1105.378c10.94,0.967,29.202,2.185,25.368-13.235
	c4.255-20.149,23.125-18.649,39.091-22.043c16.907-8.843,33.124-18.818,51.351-25.384c16.225-5.086,27.866-19.038,40.809-29.779
	c17.069-13.461,38.757-3.85,54.298,6.217c15.063,0.771,30.604,0.951,44.988,5.752c16.428,3.595,33.249,0.537,48.929-4.424
	c14.625-4.382,29.828-4.736,45.075-4.235c18.041,1.198,22.76-24.336,42.134-23.578c7.526-16.535,23.285-26.636,35.429-39.853
	c4.556-4.571,34.192-7.57,17.46-4.971l1.761-1.084"/>
<path id="path4210" fill="none" stroke="#0978AB" stroke-width="4.6" d="M1554.941,1025.967
	c-1.54,15.048,12.574,30.566,25.981,34.396c10.297,11.854,27.819-0.063,39.092,10.824c9.486,7.765,14.232,23.546,26.845,25.341
	c13.793-2.792,23.923,3.593,33.293,11.662c6.881,16.351,29.749,0.082,35.642,17.885c9.093,10.384,2.06,27.872,12.196,35.686
	c16.923,4.165,34.681,1.158,51.951,2.074c9.292,0.214,13.33,13.366,24.971,12.724c9.202,11.08,22.1,8.819,35.14,8.232
	c13.403,0.854,26.82-0.597,39.029-6.438c15.201-4.898,24.763,9.927,39.538,5.403c7.252-0.349,11.236,9.074,19.043,6.55"/>
<path id="path4213" fill="none" stroke="#0978AB" stroke-width="3.7" d="M1435.824,1008.319c6.708-3.413-1.227-16.94,1.214-23.489
	c0.524-8.43,12.548-4.349,15.22-11.768c4.674-5.61,9.19-11.622,14.003-16.851c7.375-2.424,14.479-4.891,20.252-10.36
	c4.23-6.962,11.731-10.933,15.923-17.72c4.533-6.004,12.215-10.174,19.875-8.609c7.017,1.036,14.547,0.996,20.564-3.322
	c8.859-1.696,7.983-10.776,7.654-17.762c0.672-6.805-1.627-14.414,1.762-20.602c5.016-5.179,16.555-1.752,16.832-11.472
	c-0.146-7.301,6.453-9.57,11.186-13.561"/>
<path id="path4255" fill="none" stroke="#0978AB" stroke-width="4.5" d="M1256.044,2285.525c7.409,2.362,22.287,7.769,30.049,17.837
	c15.797,2.872,29.949,12.073,46.657,9.931c17.969,2.766,36.477,2.75,54.544,0.909c12.143-7.932,27.402-3.084,41.085-4.412
	c15.445,0.688,31.23-1.492,46.439,1.295c14.914,8.494,37.05,12.323,32.374,34.479c7.021,14.612,17.384,28.251,14.661,45.292
	c-0.54,16.631,1.135,33.486-0.931,49.967c-14.519,15.227,15.546,25.385,17.819,39.604c-2.698,15.326,2.865,28.03,8.314,41.688
	c6.477,12.586,16.106,23.499,21.311,36.027c3.078,19.148,25.82,23.452,35.104,38.413c5.681,5.841,15.898,3.815,15.441,14.338"/>
<path id="path4258" fill="none" stroke="#0978AB" stroke-width="4.5" d="M1283.618,2300.966c13.919,2.258,22.985-9.926,36.678-9.423
	c11.661-3.342,22.679-8.288,34.574-10.685c3.197-12.934,18.563-18.62,20.292-32.833c8.605-8.627,15.904-19.579,26.498-26.39
	c8.939-8.405,18.657-16.422,31.958-13.316c13.614,3.859,22.759-6.073,34.579-9.316c12.186-4.566,24.895-6.109,36.904-11.387
	c11.962-3.18,24.124-4.79,35.515-9.635c11.791-3.295,22.572-11.506,35.508-7.511c17.902,1.851,35.91,0.9,53.817,2.555
	c8.518,2.56,11.314-3.715,17.647-6.618"/>
<path id="path4261" fill="none" stroke="#0978AB" stroke-width="4.4" d="M1502.552,2326.886c3.715-3.97,11.377,2.621,15.272,3.85
	c5.896,0.49,7.457,7.6,13.32,8.644c11.193,0.763,22.574,2.385,33.724,0.19c4.708-1.717,8.925-5.313,14.321-4.412
	c6.979-0.211,14.031,0.415,20.579,2.992c5.011,2.298,11.24-0.027,15.657,3.688c4.234,3.688,10.104,4.247,14.833,7.155
	c4.036,0.785,6.863,2.561,9.181,5.66c0.845,0.289,1.748,0.353,2.635,0.357"/>
<path id="path4264" fill="none" stroke="#0978AB" stroke-width="3" d="M1552.735,2531.481c1.141,4.273-7.325,7.162-8.121,11.261
	c-3.313,3.105-8.3,2.392-12.482,2.947c-5.51,0.18-11.76,0.1-16.105,4.004c-2.369,4.273-0.188,9.361-0.856,13.931
	c-1.093,5.03-7.233,3.777-11.108,4.177c-4.896-0.71-8.894,2.331-13.415,3.268c-5.724,0.011-11.339,1.073-17.052,1.231
	c-5.339,0.127-9.82,3.399-14.223,6.053c-5.333,3.533-6.979,10.102-9.999,15.38l-0.314,0.616"/>
<path id="path4304" fill="none" stroke="#0978AB" stroke-width="3" d="M1178.839,2696.923c-2.762,17.346,4.978,40.463,21.49,48.131
	c18.891,11.885,39.486-5.413,58.448,2.654c19.221,10.883,43.815,5.826,63.191,16.845c17.318,8.909,36.33,13.207,55.502,15.299
	c17.566,9.802,40.417,8.389,56.02,22.833c19.546,2.826,35.024,16.521,54.172,19.973c15.469,12.533,37.637,10.858,50.735,27.574
	c9.094,13.563,26.16,16.707,23.076,35.895c7.623,14.139,18.429,23.611,31.726,30.824c10.588,9.865,34.145,5.908,37.757,26.184
	c3.628,4.272,7.203,9.197,12.221,11.877"/>
<path id="path4333" fill="#C6ECFF" stroke="#0978AB" stroke-width="4.1" d="M-8.489,2509.985
	c55.145-37.78,130.53-113.257,181.445-154.975c25.089-62.186,75.592-92.387,108.993-151.377
	c69.839-72.883,99.122-140.093,144.684-208.183c44.972-80.906,63.673-150.068,99.872-222.72c2.791-30.496,3.807-30.546,6.16-56.32
	c23.31-24.672,45.751-61.832,52.791-98.166c31.256-85.385,32.021-180.063,62.868-271.323
	c16.372-79.698,42.199-192.82,54.044-275.735c27.734-29.968,26.88-96.163,35.688-129.825c20.811-7.553,16.882-16.983,39.312-3.63
	c20.23-4.78,43.919-13.906,55.271-52.02c6.94-23.775-1.768-40.141-8.83-57.193c7.276-17.054,17.3-24.867,17.582-42.569
	c0.283-17.701,0.752-35.364,3.257-52.263c8.396-49.474,9.969-51.454,10.173-88.33c26.675-17.023,68.524-53.5,86.886-84.831
	c1.592-39.48,2.082-23.676-0.899-68.296c25.091-33.509,53.99-166.741,83.62-196.41c48.263-33.068,41.893-72.555,72.794-136.765
	c16.112-55.183,45.382-105.555,67.279-158.824l3.266-6.974L-11.441-3.702L-8.489,2509.985z"/>
<path id="path4346" fill="none" stroke="#0978AB" stroke-width="6" d="M208.25,2296.555c22.808,5.316,57.031,3.037,62.193,32.101
	c8.985,22.946,22.249,43.512,32.064,66.129c5.548,12.393,20.225,16.359,14.692,33.98c14.072,21.592-5.972,56.99,19.495,71.829
	c11.257,20.311,30.215,35.398,48.487,48.983c20.22,10.561,50.475,12.203,60.2,34.846c19.313,18.769,19.166,45.202,23.988,69.588
	c8.797,23.301,6.23,50.34,26.147,68.789c16.39,23.221,16.134,51.792,18.214,79.029c3.324,27.893,18.722,54.571,48.399,59.093
	c20.405,14.66,48.167,14.258,67.441-1.867c25.118,0.993,21.608-47.441,47.624-26.872l3.111,1.505"/>
<path id="path4353" fill="none" stroke="#1A9EE1" stroke-width="4.5" d="M566.896,1667.878c9.133-0.66,22.233,2.03,30.452-3.153
	c11.31-2.363,22.18-5.84,33.329-8.979c10.159-2.603,19.826-6.701,29.673-10.232c9.669-3.137,21.45,0.247,28.231-9.475
	c8.238-5.467,12.7-14.869,23.475-16.194c12.303-4.751,25.846-1.931,38.699-2.693c11.765-1.388,22.179,6.007,33.92,4.403
	c12.144,3.009,20.708-4.631,30.826-9.418c5.47-1.375,10.174-3.97,14.809-7.126"/>
<path id="path4356" fill="none" stroke="#1A9EE1" stroke-width="3.5" d="M682.515,1642.511c7.304-0.392,10.778,8.13,17.069,10.685
	c4.395,4.609,11.516,5.687,11.746,13.399c5.342,5.169,5.819,15.313,14.696,16.613c7.565,2.76,11.649,10.677,19.356,13.347
	c6.146,2.276,12.644,3.716,18.921,5.442c7.842,0.07,15.638-0.365,22.82,3.239c9.481,0.47,18.921,1.559,28.433,1.358
	c6.511,0.734,12.965,2.283,19.563,1.158c13.354-0.574,26.776,0.323,40.106-0.467c7.02-1.534,11.082-8.034,19.053-5.217"/>
<path id="path4371" fill="none" stroke="#1A9EE1" stroke-width="4" d="M791.706,932.673c-0.657,3.782,0.745,9.141,2.206,14.984
	c1.388,5.552,3.203,8.403,4.411,13.235c0.985,3.94,11.905,4.907,14.339,5.515c3.659,0.915,7.554,5.349,9.927,7.721
	c3.116,3.117,6.799,5.375,9.926,7.721c4.618,3.463,7.472,7.756,9.927,11.029c3.081,4.108,2.244,8.861,5.515,12.133
	c5.149,5.148,5.711,5.197,7.721,13.235c1.225,4.897,3.702,7.403,5.515,11.029c2.786,5.573,3.309,8.779,3.309,15.44
	c0,5.443,2.206,10.762,2.206,16.545c0,3.866,9.786,13.095,12.133,15.44c4.604,4.604,6.147,8.354,9.926,12.133
	c2.694,2.694,5.25,1.118,7.721,4.412"/>
<path id="path4385" fill="none" stroke="#0978AB" stroke-width="4" d="M971.485,421.555c24.665,3.053,45.392,13.461,71.967,8.823
	c27.747-6.837,37.522,28.469,65.356,17.484c25.045-12.594,51.225,5.05,77.475,1.266c15.948-0.251,38.225,5.962,31.484-17.65
	c16.996-14.11,9.247-46.766,36.07-51.834c19.111-12.46,24.079-36.275,47.427-41.912c27.186-5.168,13.237-39.34,26.226-57.538
	c4.494-22.33,10.889-44.955,25.204-63.168c11.145-19.354,12.313-43.138,18.695-63.22c18.119-16.423,40.682-27.231,64.157-33.776
	c24.141-3.602,37.066-28.145,35.935-50.741c6.018-22.843,18.837-46.606,41.325-56.579c6.476-1.353,11.46-5.366,15.664-10.271"/>
<path id="path2322" d="M1100.152,175.653l2.53,6.098l6.586,0.453l-5.018,4.291l1.604,6.403l-5.631-3.446l-5.594,3.505l1.537-6.42
	l-5.063-4.237l6.581-0.522L1100.152,175.653L1100.152,175.653z"/>
<path id="path3293" d="M1251.7,392.471l2.53,6.097l6.586,0.453l-5.018,4.291l1.604,6.404l-5.631-3.446l-5.594,3.505l1.537-6.42
	l-5.062-4.237l6.58-0.522L1251.7,392.471z"/>
<path id="path3295" d="M1333.59,498.536l2.529,6.098l6.586,0.453l-5.018,4.29l1.605,6.403l-5.631-3.445l-5.595,3.505l1.537-6.42
	l-5.062-4.237l6.581-0.522L1333.59,498.536L1333.59,498.536z"/>
<path id="path3297" d="M1203.348,639.698l2.529,6.098l6.586,0.453l-5.017,4.29l1.604,6.403l-5.631-3.445l-5.594,3.505l1.537-6.42
	l-5.063-4.237l6.581-0.522L1203.348,639.698L1203.348,639.698z"/>
<path id="path3299" d="M1254.82,718.468l2.53,6.098l6.586,0.452l-5.018,4.29l1.604,6.404l-5.631-3.446l-5.594,3.505l1.537-6.42
	l-5.063-4.237l6.581-0.522L1254.82,718.468L1254.82,718.468z"/>
<path id="path3301" d="M1253.26,859.629l2.53,6.097l6.586,0.453l-5.017,4.29l1.604,6.404l-5.631-3.446l-5.595,3.505l1.537-6.42
	l-5.062-4.237l6.581-0.522L1253.26,859.629L1253.26,859.629z"/>
<path id="path3303" d="M1222.064,970.375l2.53,6.097l6.586,0.453l-5.018,4.29l1.604,6.403l-5.631-3.445l-5.594,3.505l1.537-6.42
	l-5.063-4.237l6.581-0.522L1222.064,970.375L1222.064,970.375z"/>
<path id="path3305" d="M1616.692,922.801l2.53,6.098l6.586,0.452l-5.018,4.29l1.604,6.404l-5.631-3.446l-5.594,3.505l1.537-6.42
	l-5.063-4.237l6.581-0.521L1616.692,922.801L1616.692,922.801z"/>
<path id="path3307" d="M858.632,975.054l2.53,6.098l6.586,0.452l-5.018,4.291l1.605,6.403l-5.631-3.446l-5.595,3.505l1.537-6.42
	l-5.062-4.237l6.581-0.521L858.632,975.054L858.632,975.054z"/>
<path id="path3309" d="M882.809,1046.024l2.53,6.098l6.586,0.453l-5.017,4.29l1.604,6.403l-5.631-3.446l-5.595,3.505l1.537-6.42
	l-5.062-4.237l6.581-0.521L882.809,1046.024L882.809,1046.024z"/>
<path id="path3311" d="M707.332,1127.138l2.53,6.098l6.586,0.452l-5.018,4.291l1.604,6.403l-5.631-3.446l-5.594,3.505l1.537-6.42
	l-5.062-4.237l6.581-0.521L707.332,1127.138L707.332,1127.138z"/>
<path id="path3313" d="M834.455,1084.237l2.53,6.098l6.586,0.453l-5.018,4.29l1.605,6.403l-5.631-3.445l-5.595,3.505l1.537-6.421
	l-5.062-4.237l6.581-0.521L834.455,1084.237L834.455,1084.237z"/>
<path id="path3315" d="M931.163,1152.088l2.529,6.098l6.586,0.452l-5.017,4.29l1.604,6.404l-5.631-3.446l-5.595,3.505l1.537-6.42
	l-5.062-4.237l6.581-0.522L931.163,1152.088L931.163,1152.088z"/>
<path id="path3317" d="M957.68,1221.497l2.529,6.098l6.586,0.453l-5.017,4.29l1.604,6.403l-5.631-3.445l-5.595,3.505l1.538-6.42
	l-5.063-4.237l6.581-0.522L957.68,1221.497L957.68,1221.497z"/>
<path id="path3323" d="M1193.988,1234.758l2.53,6.098l6.586,0.452l-5.018,4.29l1.604,6.404l-5.631-3.446l-5.594,3.505l1.537-6.42
	l-5.063-4.237l6.581-0.522L1193.988,1234.758L1193.988,1234.758z"/>
<path id="path3325" d="M1397.541,1156.768l2.53,6.098l6.586,0.452l-5.018,4.291l1.604,6.403l-5.631-3.446l-5.594,3.505l1.537-6.42
	l-5.062-4.237l6.581-0.521L1397.541,1156.768L1397.541,1156.768z"/>
<path id="path3327" d="M1730.558,1108.418l2.53,6.097l6.586,0.453l-5.018,4.29l1.604,6.403l-5.631-3.445l-5.595,3.505l1.538-6.42
	l-5.063-4.237l6.581-0.522L1730.558,1108.418L1730.558,1108.418z"/>
<path id="path3329" d="M1633.07,1262.058l2.53,6.098l6.586,0.452l-5.018,4.291l1.604,6.403l-5.631-3.446l-5.594,3.505l1.537-6.42
	l-5.063-4.237l6.581-0.521L1633.07,1262.058L1633.07,1262.058z"/>
<path id="path3331" d="M1268.078,1476.527l2.53,6.098l6.586,0.453l-5.018,4.29l1.604,6.403l-5.631-3.446l-5.594,3.506l1.537-6.421
	l-5.063-4.237l6.581-0.521L1268.078,1476.527L1268.078,1476.527z"/>
<path id="path3333" d="M1326.57,1521.758l2.53,6.097l6.586,0.453l-5.018,4.29l1.604,6.404l-5.631-3.446l-5.594,3.505l1.537-6.42
	l-5.063-4.237l6.581-0.522L1326.57,1521.758z"/>
<path id="path3335" d="M933.502,1452.348l2.53,6.098l6.586,0.452l-5.018,4.291l1.605,6.403l-5.631-3.446l-5.595,3.505l1.537-6.42
	l-5.062-4.237l6.581-0.521L933.502,1452.348L933.502,1452.348z"/>
<path id="path3337" d="M991.214,1520.197l2.53,6.098l6.586,0.453l-5.018,4.29l1.605,6.403l-5.631-3.445l-5.595,3.505l1.537-6.42
	l-5.062-4.238l6.581-0.521L991.214,1520.197L991.214,1520.197z"/>
<path id="path3339" d="M926.483,1552.958l2.53,6.097l6.586,0.453l-5.018,4.29l1.604,6.404l-5.631-3.446l-5.594,3.505l1.537-6.42
	l-5.063-4.237l6.581-0.522L926.483,1552.958L926.483,1552.958z"/>
<path id="path3341" d="M1480.21,1815.008l2.53,6.097l6.586,0.453l-5.018,4.29l1.605,6.404l-5.631-3.446l-5.595,3.505l1.537-6.42
	l-5.062-4.237l6.58-0.522L1480.21,1815.008L1480.21,1815.008z"/>
<path id="path3343" d="M1588.616,1880.518l2.53,6.098l6.586,0.452l-5.018,4.291l1.604,6.403l-5.631-3.446l-5.594,3.505l1.537-6.42
	l-5.062-4.237l6.58-0.521L1588.616,1880.518L1588.616,1880.518z"/>
<path id="path3345" d="M1570.678,1963.188l2.53,6.098l6.586,0.452l-5.017,4.291l1.604,6.403l-5.631-3.446l-5.595,3.505l1.537-6.42
	l-5.062-4.237l6.581-0.521L1570.678,1963.188L1570.678,1963.188z"/>
<path id="path3347" d="M1551.961,2176.878l2.53,6.097l6.586,0.453l-5.018,4.29l1.605,6.404l-5.631-3.446l-5.595,3.505l1.537-6.42
	l-5.062-4.237l6.581-0.522L1551.961,2176.878L1551.961,2176.878z"/>
<path id="path3351" d="M1161.232,1836.058l2.53,6.098l6.586,0.452l-5.018,4.291l1.604,6.403l-5.631-3.446l-5.594,3.505l1.537-6.42
	l-5.063-4.237l6.581-0.521L1161.232,1836.058L1161.232,1836.058z"/>
<path id="path3353" d="M1158.893,1879.737l2.529,6.098l6.586,0.453l-5.017,4.29l1.604,6.403l-5.631-3.445l-5.594,3.505l1.537-6.421
	l-5.063-4.236l6.581-0.522L1158.893,1879.737z"/>
<path id="path3355" d="M975.286,1949.17l2.53,6.098l6.585,0.452l-5.017,4.291l1.604,6.403l-5.631-3.446l-5.594,3.505l1.537-6.42
	l-5.063-4.237l6.581-0.521L975.286,1949.17L975.286,1949.17z"/>
<path id="path3357" d="M899.967,1878.178l2.53,6.098l6.586,0.452l-5.018,4.291l1.604,6.403l-5.631-3.446l-5.594,3.505l1.537-6.42
	l-5.063-4.237l6.581-0.521L899.967,1878.178L899.967,1878.178z"/>
<path id="path3359" d="M710.451,1630.947l2.53,6.098l6.586,0.453l-5.018,4.29l1.604,6.403l-5.631-3.445l-5.594,3.505l1.537-6.42
	l-5.063-4.238l6.581-0.521L710.451,1630.947L710.451,1630.947z"/>
<path id="path3361" d="M1030.989,1687.098l2.53,6.098l6.586,0.452l-5.018,4.291l1.604,6.403l-5.631-3.446l-5.594,3.505l1.537-6.42
	l-5.063-4.237l6.581-0.521L1030.989,1687.098L1030.989,1687.098z"/>
<path id="path3363" d="M1023.19,1822.798l2.53,6.098l6.586,0.452l-5.018,4.29l1.604,6.404l-5.631-3.446l-5.594,3.505l1.537-6.42
	l-5.063-4.237l6.581-0.522L1023.19,1822.798z"/>
<path id="path3365" d="M985.755,1815.008l2.53,6.097l6.586,0.453l-5.018,4.29l1.605,6.404l-5.631-3.446l-5.595,3.505l1.537-6.42
	l-5.062-4.237l6.581-0.522L985.755,1815.008L985.755,1815.008z"/>
<path id="path3367" d="M829.776,1846.197l2.529,6.098l6.586,0.453l-5.017,4.29l1.604,6.403l-5.631-3.445l-5.595,3.505l1.538-6.42
	l-5.063-4.238l6.581-0.521L829.776,1846.197L829.776,1846.197z"/>
<path id="path3369" d="M708.112,1869.598l2.53,6.098l6.586,0.452l-5.018,4.291l1.604,6.403l-5.631-3.446l-5.594,3.505l1.537-6.42
	l-5.063-4.237l6.581-0.521L708.112,1869.598L708.112,1869.598z"/>
<path id="path3371" d="M588.788,1668.378l2.53,6.097l6.586,0.453l-5.018,4.29l1.605,6.404l-5.631-3.446l-5.595,3.505l1.537-6.42
	l-5.062-4.237l6.58-0.522L588.788,1668.378z"/>
<path id="path3373" d="M556.813,1691.777l2.529,6.098l6.587,0.453l-5.018,4.29l1.604,6.403l-5.631-3.446l-5.594,3.506l1.537-6.421
	l-5.063-4.237l6.581-0.521L556.813,1691.777L556.813,1691.777z"/>
<path id="path3379" d="M627.782,1949.147l2.53,6.098l6.586,0.453l-5.018,4.29l1.604,6.403l-5.631-3.446l-5.594,3.505l1.537-6.42
	l-5.063-4.237l6.581-0.521L627.782,1949.147L627.782,1949.147z"/>
<path id="path3381" d="M472.583,1967.867l2.53,6.098l6.586,0.453l-5.018,4.29l1.605,6.403l-5.631-3.445l-5.595,3.505l1.537-6.42
	l-5.062-4.238l6.581-0.521L472.583,1967.867L472.583,1967.867z"/>
<path id="path3385" d="M742.428,2039.617l2.529,6.098l6.586,0.453l-5.017,4.29l1.604,6.403l-5.631-3.445l-5.595,3.505l1.538-6.42
	l-5.063-4.238l6.581-0.521L742.428,2039.617L742.428,2039.617z"/>
<path id="path3387" d="M619.983,2165.958l2.53,6.097l6.586,0.453l-5.018,4.29l1.604,6.404l-5.631-3.446l-5.594,3.505l1.537-6.42
	l-5.063-4.237l6.581-0.522L619.983,2165.958L619.983,2165.958z"/>
<path id="path3389" d="M838.354,2207.288l2.53,6.097l6.586,0.453l-5.018,4.29l1.605,6.404l-5.631-3.446l-5.595,3.505l1.537-6.42
	l-5.062-4.237l6.581-0.522L838.354,2207.288L838.354,2207.288z"/>
<path id="path3391" d="M758.025,2318.038l2.53,6.097l6.586,0.453l-5.018,4.29l1.604,6.404l-5.631-3.446l-5.594,3.505l1.537-6.42
	l-5.063-4.237l6.581-0.522L758.025,2318.038L758.025,2318.038z"/>
<path id="path3393" d="M825.877,2352.348l2.529,6.098l6.586,0.452l-5.017,4.291l1.604,6.403l-5.631-3.446l-5.595,3.505l1.538-6.42
	l-5.063-4.237l6.581-0.521L825.877,2352.348L825.877,2352.348z"/>
<path id="path3395" d="M880.47,2449.838l2.529,6.097l6.587,0.453l-5.018,4.29l1.604,6.403l-5.631-3.445l-5.595,3.505l1.538-6.42
	l-5.063-4.237l6.581-0.522L880.47,2449.838L880.47,2449.838z"/>
<path id="path3397" d="M632.462,2469.338l2.53,6.097l6.586,0.453l-5.018,4.29l1.605,6.403l-5.631-3.445l-5.595,3.505l1.537-6.42
	l-5.062-4.237l6.581-0.522L632.462,2469.338L632.462,2469.338z"/>
<path id="path3399" d="M396.153,2084.067l2.53,6.098l6.586,0.453l-5.018,4.29l1.604,6.403l-5.631-3.445l-5.594,3.504l1.537-6.42
	l-5.063-4.237l6.581-0.521L396.153,2084.067L396.153,2084.067z"/>
<path id="path3401" d="M290.867,2215.867l2.53,6.098l6.586,0.453l-5.018,4.29l1.605,6.403l-5.631-3.445l-5.594,3.505l1.537-6.42
	l-5.062-4.238l6.581-0.521L290.867,2215.867L290.867,2215.867z"/>
<path id="path3403" d="M406.292,2338.317l2.53,6.098l6.586,0.453l-5.018,4.29l1.605,6.403l-5.631-3.446l-5.595,3.505l1.537-6.42
	l-5.062-4.237l6.581-0.521L406.292,2338.317L406.292,2338.317z"/>
<path id="path3405" d="M281.508,3075.317l2.53,6.098l6.586,0.453l-5.018,4.29l1.605,6.403l-5.631-3.445l-5.594,3.504l1.537-6.42
	l-5.062-4.237l6.581-0.521L281.508,3075.317L281.508,3075.317z"/>
<path id="path3407" d="M1164.353,2709.548l2.53,6.098l6.586,0.452l-5.018,4.29l1.604,6.404l-5.631-3.446l-5.595,3.505l1.538-6.42
	l-5.063-4.237l6.581-0.522L1164.353,2709.548z"/>
<path id="path3409" d="M971.717,2920.897l2.53,6.098l6.586,0.453l-5.017,4.29l1.604,6.403l-5.631-3.445l-5.595,3.504l1.537-6.42
	l-5.062-4.237l6.581-0.521L971.717,2920.897L971.717,2920.897z"/>
<path id="path3411" d="M1111.319,2934.938l2.53,6.098l6.586,0.452l-5.018,4.291l1.604,6.403l-5.631-3.446l-5.594,3.506l1.537-6.421
	l-5.063-4.237l6.581-0.521L1111.319,2934.938z"/>
<path id="path3413" d="M1287.575,2991.867l2.53,6.098l6.586,0.453l-5.018,4.29l1.604,6.403l-5.631-3.445l-5.594,3.505l1.537-6.42
	l-5.062-4.238l6.58-0.521L1287.575,2991.867z"/>
<path id="path3415" d="M1222.844,3104.178l2.53,6.098l6.586,0.452l-5.017,4.291l1.604,6.403l-5.631-3.446l-5.595,3.505l1.537-6.42
	l-5.062-4.237l6.581-0.521L1222.844,3104.178L1222.844,3104.178z"/>
<path id="path3419" d="M1377.265,2554.348l2.529,6.098l6.587,0.452l-5.018,4.291l1.604,6.403l-5.631-3.446l-5.595,3.505l1.537-6.42
	l-5.062-4.237l6.581-0.521L1377.265,2554.348L1377.265,2554.348z"/>
<path id="path4256-1" stroke="#000000" stroke-width="2.9418" d="M1456.498,2008.562h-44.723l22.361-24.962L1456.498,2008.562z"/>
<path id="path2819" d="M956.663,474.648l2.53,6.098l6.586,0.452l-5.018,4.291l1.604,6.403l-5.631-3.446l-5.594,3.505l1.537-6.42
	l-5.062-4.237l6.58-0.521L956.663,474.648L956.663,474.648z"/>
<path id="path2719" d="M1063.746,1170.028l2.529,6.097l6.586,0.453l-5.018,4.29l1.605,6.403l-5.631-3.445l-5.595,3.505l1.537-6.42
	l-5.062-4.237l6.581-0.522L1063.746,1170.028L1063.746,1170.028z"/>
<path id="path2721" d="M1072.323,1136.493l2.53,6.098l6.586,0.452l-5.018,4.291l1.605,6.403l-5.631-3.446l-5.595,3.505l1.537-6.42
	l-5.062-4.237l6.581-0.521L1072.323,1136.493L1072.323,1136.493z"/>
<path id="path5175" d="M1444.818,1933.438l2.53,6.098l6.586,0.452l-5.018,4.291l1.604,6.403l-5.631-3.446l-5.594,3.505l1.537-6.42
	l-5.063-4.237l6.581-0.521L1444.818,1933.438z"/>
<text transform="matrix(1 0 0 1 634.0381 2163.4004)" font-family="'Arial-BoldMT'" font-size="40">Laquís</text>
<text transform="matrix(1 0 0 1 924.8628 2055.25)" font-family="'Arial-BoldMT'" font-size="40">Belém</text>
<text transform="matrix(1 0 0 1 846.0908 2443.3105)" font-family="'Arial-BoldMT'" font-size="40">Arade</text>
<text transform="matrix(1 0 0 1 1168.4102 1904.6895)" font-family="'Arial-BoldMT'" font-size="40">Jericó</text>
<g id="text3201" transform="matrix(0.106843,-0.9942759,0.9942759,0.106843,0,0)">
	<path id="path3674" fill="#0978AB" d="M-1518.662,1377.799l-5.695-13.711h-10.337l-2.648,13.711l-4.477,0l6.399-33.023l14.344,0
		c1.625,0,3.108,0.199,4.453,0.598c1.344,0.399,2.496,0.972,3.457,1.723c0.962,0.75,1.711,1.66,2.25,2.73
		c0.539,1.071,0.808,2.277,0.809,3.621c-0.001,2.938-0.845,5.266-2.532,6.984c-1.687,1.719-4.179,2.804-7.476,3.258l6.281,14.11
		L-1518.662,1377.799z M-1523.209,1360.549c2.829,0,4.961-0.59,6.399-1.769c1.437-1.18,2.156-2.84,2.156-4.981
		c0-1.75-0.582-3.094-1.746-4.032c-1.164-0.938-2.902-1.406-5.214-1.406h-10.008l-2.367,12.188L-1523.209,1360.549z"/>
	<path id="path3676" fill="#0978AB" d="M-1501.881,1347.049l0.797-4.032l4.219,0l-0.797,4.031L-1501.881,1347.049z
		 M-1507.834,1377.798l4.922-25.359l4.219,0l-4.946,25.359L-1507.834,1377.798z"/>
	<path id="path3678" fill="#0978AB" d="M-1486.037,1377.799h-4.991l-4.266-25.359l4.382,0l2.367,16.5
		c0.047,0.345,0.099,0.762,0.153,1.255c0.055,0.492,0.106,1.004,0.152,1.536c0.047,0.531,0.09,1.042,0.129,1.535
		c0.039,0.492,0.074,0.903,0.106,1.23c0.172-0.328,0.375-0.739,0.609-1.23c0.235-0.492,0.48-0.996,0.738-1.512
		c0.258-0.515,0.516-1.019,0.774-1.511c0.257-0.492,0.481-0.91,0.668-1.254l9-16.547l4.594,0L-1486.037,1377.799z"/>
	<path id="path3680" fill="#0978AB" d="M-1467.92,1366.009c-0.079,0.438-0.129,0.879-0.152,1.325
		c-0.023,0.446-0.043,0.887-0.059,1.324c0,2.077,0.519,3.672,1.559,4.781c1.038,1.109,2.605,1.664,4.699,1.664
		c0.875,0,1.672-0.113,2.391-0.339c0.719-0.227,1.371-0.531,1.957-0.915c0.586-0.382,1.102-0.828,1.547-1.336
		c0.445-0.507,0.816-1.042,1.113-1.605l3.234,1.476c-0.39,0.703-0.867,1.402-1.429,2.097c-0.563,0.695-1.262,1.324-2.099,1.887
		c-0.835,0.562-1.839,1.019-3.011,1.371c-1.172,0.352-2.571,0.528-4.195,0.527c-1.563,0-2.961-0.223-4.195-0.668
		c-1.234-0.446-2.278-1.094-3.129-1.945c-0.852-0.851-1.5-1.895-1.946-3.129c-0.445-1.234-0.668-2.64-0.667-4.219
		c0-2.468,0.332-4.711,0.996-6.726c0.663-2.016,1.586-3.735,2.766-5.157c1.18-1.421,2.571-2.52,4.172-3.293
		c1.601-0.773,3.339-1.16,5.214-1.16c1.719,0,3.212,0.227,4.477,0.679c1.265,0.453,2.32,1.087,3.163,1.898
		c0.844,0.813,1.473,1.786,1.887,2.919c0.413,1.132,0.621,2.379,0.621,3.738c0,0.328-0.012,0.687-0.034,1.078
		c-0.025,0.391-0.06,0.796-0.106,1.219c-0.047,0.422-0.105,0.847-0.176,1.277c-0.07,0.43-0.152,0.84-0.246,1.231L-1467.92,1366.009z
		 M-1453.295,1362.775c0.031-0.313,0.055-0.605,0.07-0.879c0.017-0.274,0.023-0.543,0.023-0.809c0-1.031-0.14-1.926-0.422-2.683
		c-0.281-0.759-0.68-1.384-1.195-1.875c-0.516-0.492-1.132-0.856-1.851-1.09c-0.719-0.234-1.516-0.352-2.391-0.352
		c-0.75,0-1.539,0.113-2.367,0.34c-0.828,0.226-1.621,0.629-2.379,1.207c-0.758,0.578-1.45,1.363-2.075,2.355
		s-1.117,2.254-1.476,3.785L-1453.295,1362.775z"/>
	<path id="path3682" fill="#0978AB" d="M-1430.373,1355.814c-0.266-0.078-0.582-0.149-0.949-0.211
		c-0.367-0.062-0.755-0.094-1.16-0.094c-1,0-1.899,0.29-2.695,0.867c-0.797,0.579-1.496,1.313-2.098,2.203
		c-0.602,0.891-1.097,1.871-1.488,2.942c-0.391,1.07-0.672,2.09-0.844,3.059l-2.578,13.218l-4.218,0l3.797-19.453
		c0.109-0.547,0.211-1.093,0.305-1.641c0.094-0.547,0.183-1.078,0.269-1.594c0.086-0.516,0.168-1.004,0.246-1.465
		c0.078-0.46,0.141-0.863,0.188-1.207h3.985c-0.047,0.344-0.106,0.75-0.176,1.218c-0.069,0.469-0.144,0.946-0.223,1.43
		c-0.078,0.484-0.152,0.949-0.222,1.394c-0.07,0.446-0.136,0.825-0.199,1.137l0.093,0c0.485-0.969,0.966-1.809,1.442-2.519
		c0.476-0.711,0.973-1.297,1.488-1.758c0.516-0.461,1.067-0.805,1.652-1.031c0.587-0.227,1.23-0.34,1.934-0.34
		c0.172,0,0.36,0.011,0.563,0.035c0.204,0.023,0.41,0.051,0.622,0.083c0.21,0.03,0.41,0.066,0.598,0.105
		c0.187,0.04,0.336,0.074,0.444,0.105L-1430.373,1355.814z"/>
	<path id="path3684" fill="#0978AB" d="M-1408.927,1378.267c-2.484,0.001-4.512-0.726-6.082-2.179
		c-1.571-1.454-2.558-3.563-2.965-6.329l3.937-0.773c0.359,1.828,0.976,3.227,1.851,4.195c0.875,0.969,2.094,1.453,3.657,1.453
		c0.937,0,1.75-0.171,2.437-0.515c0.688-0.344,1.277-0.828,1.77-1.453c0.492-0.625,0.898-1.379,1.218-2.261
		c0.321-0.883,0.581-1.856,0.786-2.918l3.679-19.055l-6.82,0l0.703-3.657l11.273,0l-4.524,23.11
		c-0.297,1.562-0.723,2.985-1.277,4.265c-0.555,1.281-1.266,2.375-2.133,3.282c-0.867,0.905-1.917,1.606-3.152,2.098
		C-1405.802,1378.021-1407.256,1378.267-1408.927,1378.267L-1408.927,1378.267z"/>
	<path id="path3686" fill="#0978AB" d="M-1368.685,1361.791c0,0.812-0.047,1.629-0.141,2.449c-0.094,0.82-0.249,1.692-0.469,2.614
		c-0.469,2.062-1.121,3.819-1.957,5.273c-0.836,1.453-1.817,2.632-2.942,3.539c-1.125,0.907-2.375,1.567-3.75,1.98
		c-1.375,0.414-2.844,0.621-4.406,0.621c-1.5,0-2.859-0.23-4.079-0.691c-1.218-0.461-2.261-1.133-3.129-2.015
		c-0.867-0.883-1.539-1.961-2.015-3.235c-0.477-1.274-0.715-2.722-0.715-4.348c0.016-0.733,0.059-1.492,0.129-2.273
		c0.069-0.781,0.199-1.594,0.386-2.438c0.453-1.969,1.078-3.66,1.875-5.074c0.797-1.414,1.743-2.582,2.836-3.504
		c1.093-0.922,2.332-1.601,3.715-2.038c1.383-0.438,2.895-0.657,4.536-0.656c1.656,0,3.112,0.219,4.37,0.656
		c1.258,0.437,2.313,1.078,3.164,1.922c0.852,0.843,1.497,1.871,1.934,3.081
		C-1368.904,1358.865-1368.685,1360.244-1368.685,1361.791L-1368.685,1361.791z M-1373.045,1361.791
		c0-1.203-0.132-2.226-0.399-3.071c-0.266-0.844-0.652-1.535-1.16-2.074c-0.508-0.539-1.121-0.933-1.84-1.183
		c-0.718-0.25-1.523-0.375-2.413-0.375c-0.828,0.001-1.66,0.098-2.497,0.294c-0.835,0.195-1.633,0.589-2.39,1.183
		c-0.758,0.594-1.449,1.438-2.074,2.531s-1.149,2.547-1.571,4.36c-0.203,0.859-0.347,1.676-0.433,2.449
		c-0.086,0.773-0.129,1.488-0.129,2.144c0,1.282,0.148,2.376,0.445,3.282s0.708,1.64,1.231,2.202
		c0.523,0.563,1.141,0.974,1.851,1.231c0.711,0.257,1.488,0.386,2.333,0.387c0.844,0,1.675-0.095,2.496-0.281
		c0.819-0.188,1.597-0.582,2.331-1.184c0.735-0.602,1.411-1.458,2.027-2.567c0.617-1.109,1.137-2.578,1.559-4.406
		c0.219-0.938,0.372-1.797,0.458-2.578S-1373.076,1362.572-1373.045,1361.791L-1373.045,1361.791z"/>
	<path id="path3688" fill="#0978AB" d="M-1350.31,1355.814c-0.266-0.077-0.582-0.149-0.95-0.211
		c-0.367-0.062-0.754-0.094-1.159-0.094c-1.001,0-1.899,0.289-2.696,0.867c-0.796,0.578-1.495,1.312-2.097,2.203
		c-0.602,0.89-1.099,1.87-1.488,2.941c-0.391,1.07-0.672,2.091-0.844,3.059l-2.578,13.219l-4.22,0l3.797-19.453
		c0.11-0.547,0.212-1.094,0.305-1.642c0.094-0.546,0.184-1.078,0.27-1.594c0.086-0.515,0.168-1.003,0.246-1.464
		s0.141-0.864,0.188-1.208l3.985,0c-0.047,0.344-0.106,0.75-0.176,1.219c-0.07,0.469-0.145,0.945-0.223,1.429
		c-0.078,0.485-0.152,0.949-0.222,1.394c-0.07,0.446-0.137,0.825-0.199,1.137l0.093,0c0.484-0.968,0.966-1.808,1.441-2.519
		c0.477-0.711,0.974-1.297,1.489-1.758c0.516-0.461,1.067-0.805,1.652-1.031c0.587-0.227,1.231-0.339,1.934-0.34
		c0.172,0,0.36,0.012,0.563,0.036c0.203,0.022,0.41,0.05,0.621,0.082c0.212,0.031,0.411,0.066,0.598,0.106
		c0.188,0.039,0.336,0.074,0.446,0.105L-1350.31,1355.814z"/>
	<path id="path3690" fill="#0978AB" d="M-1341.709,1378.291c-1.249,0-2.359-0.195-3.328-0.586s-1.781-0.945-2.438-1.664
		c-0.656-0.719-1.156-1.59-1.5-2.614s-0.516-2.168-0.515-3.433c0-0.703,0.035-1.539,0.105-2.508
		c0.071-0.968,0.199-1.946,0.387-2.929c0.422-2.219,0.976-4.121,1.663-5.708c0.688-1.585,1.516-2.886,2.485-3.902
		c0.968-1.016,2.078-1.761,3.328-2.239c1.25-0.476,2.649-0.715,4.196-0.715c1.921,0.001,3.488,0.407,4.699,1.219
		c1.211,0.813,2.066,1.953,2.567,3.422l0.117,0c0.03-0.156,0.077-0.414,0.141-0.774c0.062-0.358,0.129-0.738,0.199-1.136
		c0.069-0.398,0.136-0.778,0.199-1.137c0.062-0.359,0.102-0.609,0.117-0.749l1.922-9.821l4.219,0l-5.742,29.555
		c-0.125,0.609-0.238,1.195-0.339,1.757c-0.102,0.563-0.192,1.078-0.27,1.547c-0.078,0.469-0.141,0.872-0.188,1.208
		c-0.047,0.336-0.078,0.574-0.094,0.714l-4.031,0.001c0-0.313,0.042-0.813,0.129-1.501c0.086-0.687,0.207-1.437,0.363-2.25l-0.117,0
		c-0.563,0.734-1.137,1.368-1.723,1.899c-0.586,0.531-1.207,0.972-1.863,1.324c-0.656,0.351-1.367,0.609-2.133,0.774
		C-1339.92,1378.209-1340.771,1378.291-1341.709,1378.291L-1341.709,1378.291z M-1340.49,1375.033c1,0,1.948-0.148,2.848-0.445
		c0.898-0.297,1.73-0.809,2.496-1.535c0.766-0.727,1.441-1.707,2.027-2.941c0.585-1.234,1.059-2.789,1.418-4.664
		c0.297-1.532,0.445-2.914,0.445-4.148c0-1.016-0.133-1.907-0.398-2.672c-0.266-0.766-0.645-1.41-1.137-1.933
		c-0.492-0.524-1.086-0.918-1.781-1.184c-0.695-0.266-1.465-0.398-2.309-0.398c-0.953-0.001-1.824,0.144-2.613,0.433
		c-0.789,0.289-1.5,0.789-2.133,1.5s-1.187,1.664-1.664,2.859c-0.476,1.196-0.894,2.7-1.254,4.512c-0.36,1.89-0.539,3.5-0.539,4.827
		c0,1.922,0.367,3.368,1.102,4.337C-1343.248,1374.548-1342.084,1375.033-1340.49,1375.033L-1340.49,1375.033z"/>
	<path id="path3692" fill="#0978AB" d="M-1299.662,1377.657c-0.453,0.11-0.941,0.199-1.465,0.271
		c-0.523,0.069-1.035,0.105-1.535,0.105c-1.454,0-2.512-0.301-3.176-0.902c-0.664-0.601-0.996-1.496-0.997-2.683
		c0-0.235,0.016-0.489,0.048-0.762c0.031-0.273,0.055-0.52,0.07-0.738l-0.141,0c-0.547,0.828-1.113,1.57-1.699,2.226
		c-0.587,0.656-1.235,1.215-1.945,1.675c-0.712,0.462-1.504,0.813-2.379,1.055c-0.875,0.242-1.89,0.363-3.046,0.363
		c-1.219,0-2.286-0.195-3.2-0.586c-0.914-0.39-1.683-0.909-2.309-1.558c-0.625-0.649-1.093-1.394-1.406-2.239
		c-0.313-0.844-0.469-1.711-0.469-2.602c0-1.265,0.184-2.359,0.551-3.281c0.366-0.922,0.867-1.711,1.5-2.367
		c0.633-0.656,1.375-1.192,2.227-1.605c0.851-0.415,1.757-0.738,2.718-0.973c0.961-0.234,1.957-0.399,2.988-0.492
		c1.031-0.094,2.039-0.148,3.023-0.164l5.438-0.071l0.165-0.844c0.078-0.39,0.144-0.765,0.199-1.124
		c0.055-0.359,0.081-0.695,0.081-1.008c0-1.422-0.414-2.473-1.241-3.153c-0.829-0.679-1.978-1.019-3.446-1.02
		c-0.765,0-1.48,0.059-2.145,0.176c-0.663,0.117-1.257,0.329-1.78,0.633c-0.524,0.305-0.984,0.719-1.383,1.242
		c-0.399,0.524-0.723,1.184-0.973,1.98l-4.172-0.679c0.297-0.969,0.703-1.855,1.219-2.66c0.516-0.805,1.195-1.496,2.039-2.074
		c0.843-0.578,1.871-1.027,3.082-1.348s2.66-0.48,4.348-0.48c1.391,0,2.625,0.172,3.703,0.516c1.078,0.344,1.984,0.82,2.719,1.43
		c0.734,0.61,1.293,1.335,1.675,2.179c0.383,0.844,0.575,1.774,0.575,2.79c0,0.484-0.042,1.066-0.129,1.746
		c-0.086,0.679-0.192,1.324-0.317,1.933l-1.734,8.859c-0.078,0.343-0.141,0.695-0.188,1.054c-0.047,0.36-0.07,0.695-0.069,1.007
		c0,0.578,0.152,1.008,0.457,1.29c0.305,0.281,0.786,0.421,1.442,0.422c0.234,0,0.473-0.015,0.715-0.046
		c0.242-0.032,0.473-0.07,0.691-0.117L-1299.662,1377.657z M-1305.427,1365.236l-4.664,0.095c-0.625,0.016-1.274,0.047-1.946,0.094
		c-0.672,0.047-1.332,0.144-1.98,0.292c-0.649,0.148-1.266,0.348-1.852,0.598c-0.586,0.25-1.097,0.59-1.535,1.019
		c-0.438,0.43-0.785,0.95-1.043,1.559c-0.258,0.609-0.386,1.344-0.386,2.203c0,0.5,0.082,0.988,0.246,1.465
		c0.164,0.476,0.418,0.899,0.762,1.266c0.344,0.368,0.77,0.664,1.277,0.891c0.508,0.226,1.105,0.34,1.793,0.34
		c1.359,0,2.547-0.234,3.563-0.703c1.016-0.469,1.883-1.047,2.602-1.734c0.719-0.688,1.285-1.434,1.699-2.238
		c0.414-0.805,0.691-1.543,0.832-2.215L-1305.427,1365.236z"/>
	<path id="path3694" fill="#0978AB" d="M-1280.865,1377.798l2.953-15.117c0.125-0.61,0.226-1.23,0.305-1.864
		c0.078-0.633,0.117-1.183,0.117-1.652c0-1.235-0.328-2.195-0.984-2.883c-0.657-0.688-1.728-1.031-3.212-1.031
		c-1-0.001-1.941,0.199-2.824,0.597c-0.882,0.398-1.683,0.961-2.402,1.688c-0.719,0.727-1.333,1.601-1.841,2.625
		c-0.508,1.023-0.887,2.168-1.137,3.433l-2.765,14.203l-4.219,0.001l3.891-19.945c0.109-0.532,0.215-1.091,0.316-1.676
		c0.102-0.587,0.196-1.141,0.281-1.664c0.086-0.524,0.157-0.973,0.212-1.348c0.055-0.375,0.09-0.618,0.106-0.726l3.984-0.001
		c0,0.079-0.023,0.289-0.07,0.633c-0.047,0.344-0.105,0.738-0.176,1.184c-0.07,0.446-0.14,0.898-0.211,1.359
		c-0.07,0.46-0.137,0.848-0.199,1.16l0.07,0c0.531-0.735,1.078-1.399,1.641-1.992c0.562-0.594,1.183-1.098,1.863-1.511
		c0.68-0.415,1.43-0.731,2.25-0.95c0.82-0.219,1.753-0.328,2.8-0.327c2.312,0,4.051,0.57,5.214,1.71
		c1.165,1.141,1.747,2.789,1.746,4.945c0,0.563-0.051,1.196-0.153,1.898c-0.101,0.703-0.214,1.352-0.339,1.946l-2.977,15.305
		L-1280.865,1377.798z"/>
</g>
<text transform="matrix(1 0 0 1 939.395 1514.5096)" font-family="'Arial-BoldMT'" font-size="40">Siquém</text>
<text transform="matrix(1 0 0 1 992.4082 1978.91)" font-family="'Arial-BoldMT'" font-size="40">Jerusalém</text>
<text transform="matrix(1 0 0 1 913.9482 1883.4901)" font-family="'Arial-BoldMT'" font-size="40">Gabaon</text>
<text transform="matrix(1 0 0 1 554.3018 2460.2695)" font-family="'Arial-BoldMT'" font-size="40">Bersebá</text>
<text transform="matrix(1 0 0 1 250.2222 3066.7402)" font-family="'Arial-BoldMT'" font-size="40">Qadesh</text>
<text transform="matrix(1 0 0 1 248.1021 2263.0605)" font-family="'Arial-BoldMT'" font-size="40">Gaza</text>
<text transform="matrix(1 0 0 1 360.4902 2386.0498)" font-family="'Arial-BoldMT'" font-size="40">Gerar</text>
<text transform="matrix(1 0 0 1 716.7393 2305.4697)" font-family="'Arial-BoldMT'" font-size="40">Debir</text>
<text transform="matrix(1 0 0 1 790.958 2345.7598)" font-family="'Arial-BoldMT'" font-size="40">Estemoa</text>
<text transform="matrix(1 0 0 1 277.0845 2068.9736)" font-family="'Arial-BoldMT'" font-size="40">Asquelom</text>
<text transform="matrix(1 0 0 1 424.106 1959.83)" font-family="'Arial-BoldMT'" font-size="40">Asdode</text>
<text transform="matrix(1 0 0 1 1192.7676 630.2528)" font-family="'Arial-BoldMT'" font-size="40">Cedes</text>
<text transform="matrix(1 0 0 1 1316.8496 488.1776)" font-family="'Arial-BoldMT'" font-size="40">Dam</text>
<text transform="matrix(1 0 0 1 793.0781 2250.3398)" font-family="'Arial-BoldMT'" font-size="40">Hebrom</text>
<text transform="matrix(1 0 0 1 947.877 1802.91)" font-family="'Arial-BoldMT'" font-size="40">Betel</text>
<text transform="matrix(1 0 0 1 1041.1802 1830.4696)" font-family="'Arial-BoldMT'" font-size="40">Ai</text>
<text transform="matrix(1 0 0 1 1007.25 1679.9198)" font-family="'Arial-BoldMT'" font-size="40">Silo</text>
<text transform="matrix(1 0 0 1 644.6411 1966.1893)" font-family="'Arial-BoldMT'" font-size="40">Ecron</text>
<text transform="matrix(1 0 0 1 748.9785 1891.578)" font-family="'Arial-BoldMT'" font-size="40">Gezer</text>
<text transform="matrix(1 0 0 1 461.311 1709.5995)" font-family="'Arial-BoldMT'" font-size="40">Jafa</text>
<text transform="matrix(1 0 0 1 729.4619 1656.5897)" font-family="'Arial-BoldMT'" font-size="40">Afeque</text>
<text transform="matrix(1 0 0 1 1095.8799 1283.14)" font-family="'Arial-BoldMT'" font-size="40">Bete-Seã</text>
<text transform="matrix(1 0 0 1 629.7969 1145.5399)" font-family="'Arial-BoldMT'" font-size="40">Dor</text>
<text transform="matrix(1 0 0 1 1185.3799 850.788)" font-family="'Arial-BoldMT'" font-size="40">Cinerete</text>
<text transform="matrix(1 0 0 1 1129.4004 1830.4696)" font-family="'Arial-BoldMT'" font-size="40">Gilgal</text>
<text transform="matrix(1 0 0 1 719.5674 1836.83)" font-family="'Arial-BoldMT'" font-size="40">Bete-Horom</text>
<path id="path2706" d="M608.558,2014.788l2.529,6.097l6.587,0.453l-5.018,4.29l1.604,6.403l-5.631-3.445l-5.595,3.505l1.538-6.42
	l-5.063-4.237l6.581-0.522L608.558,2014.788L608.558,2014.788z"/>
<text transform="matrix(1 0 0 1 583.146 2063.7305)" font-family="'Arial-BoldMT'" font-size="40">Gate</text>
<text transform="matrix(1 0 0 1 1130.2402 2757.1396)" font-family="'Arial-BoldMT'" font-size="40">Zoar</text>
<text transform="matrix(1 0 0 1 928.792 2909.8203)" font-family="'Arial-BoldMT'" font-size="40">Tamar</text>
<text transform="matrix(1 0 0 1 1059.5474 2924.6699)" font-family="'Arial-BoldMT'" font-size="40">Zalmona</text>
<text transform="matrix(1 0 0 1 1242.6299 2977.6797)" font-family="'Arial-BoldMT'" font-size="40">Bosra</text>
<text transform="matrix(1 0 0 1 1174.7695 3094.3105)" font-family="'Arial-BoldMT'" font-size="40">Punom</text>
<text transform="matrix(1 0 0 1 1339.6611 2040.41)" font-family="'Arial-BoldMT'" font-size="40">Monte Nebo</text>
<text transform="matrix(1 0 0 1 1524.6602 2218.5303)" font-family="'Arial-BoldMT'" font-size="40">Jaaza</text>
<text transform="matrix(1 0 0 1 1368.5791 1928.0194)" font-family="'Arial-BoldMT'" font-size="40">Hesbom</text>
<path id="path2717" d="M1653.979,1806.977l2.529,6.098l6.586,0.452l-5.017,4.291l1.604,6.403l-5.631-3.446l-5.594,3.505l1.537-6.42
	l-5.063-4.237l6.581-0.521L1653.979,1806.977z"/>
<text transform="matrix(1 0 0 1 1666.7402 1841.08)" font-family="'Arial-BoldMT'" font-size="40">Rabate-Amom</text>
<text transform="matrix(1 0 0 1 1444.0801 1802.91)" font-family="'Arial-BoldMT'" font-size="40">Jazer</text>
<text transform="matrix(1 0 0 1 901.2251 1264.2899)" font-family="'Arial-BoldMT'" font-size="40">Taanaque</text>
<text transform="matrix(1 0 0 1 874.918 1202.0555)" font-family="'Arial-BoldMT'" font-size="40">Megido</text>
<text transform="matrix(1 0 0 1 692.1001 1078.2635)" font-family="'Arial-BoldMT'" font-size="40">Jocneam</text>
<g id="text2739">
	<path id="path3398" d="M1361.126,999.855l10.793-51.539h15.961c2.906,0,5.063,0.117,6.469,0.352
		c2.297,0.398,4.236,1.096,5.818,2.092s2.807,2.355,3.674,4.078s1.301,3.627,1.301,5.713c0,2.836-0.779,5.332-2.338,7.488
		s-3.943,3.797-7.154,4.922c2.789,0.914,4.875,2.291,6.258,4.131s2.074,3.99,2.074,6.451c0,2.836-0.814,5.555-2.443,8.156
		s-3.785,4.611-6.469,6.029s-5.678,2.127-8.982,2.127H1361.126z M1374.204,970.324h10.441c4.992,0,8.584-0.797,10.775-2.391
		s3.287-3.914,3.287-6.961c0-1.453-0.34-2.707-1.02-3.762s-1.588-1.822-2.725-2.303s-3.275-0.721-6.416-0.721h-10.969
		L1374.204,970.324z M1369.247,994.019h11.742c3.117,0,5.215-0.105,6.293-0.316c2.18-0.375,3.949-1.014,5.309-1.916
		s2.426-2.092,3.199-3.568s1.16-3.023,1.16-4.641c0-2.414-0.756-4.248-2.268-5.502s-4.389-1.881-8.631-1.881h-13.078
		L1369.247,994.019z"/>
	<path id="path3400" d="M1404.649,999.855l29.215-51.539h8.121l8.508,51.539h-6.68l-2.496-14.836h-20.848l-8.262,14.836H1404.649z
		 M1423.423,979.711h17.051l-2.004-12.938c-0.773-5.133-1.254-9.41-1.441-12.832c-1.172,2.953-2.883,6.457-5.133,10.512
		L1423.423,979.711z"/>
	<path id="path3402" d="M1459.247,983.191l6.75-0.633l-0.07,1.793c0,1.992,0.457,3.814,1.371,5.467s2.426,2.93,4.535,3.832
		s4.617,1.354,7.523,1.354c4.125,0,7.271-0.902,9.439-2.707s3.252-3.867,3.252-6.188c0-1.617-0.574-3.094-1.723-4.43
		c-1.172-1.313-4.371-3.094-9.598-5.344c-4.055-1.758-6.82-3.105-8.297-4.043c-2.32-1.523-4.031-3.182-5.133-4.975
		s-1.652-3.838-1.652-6.135c0-2.648,0.727-5.039,2.18-7.172s3.58-3.762,6.381-4.887s5.959-1.688,9.475-1.688
		c4.195,0,7.734,0.703,10.617,2.109s4.975,3.281,6.275,5.625s1.951,4.582,1.951,6.715c0,0.211-0.012,0.563-0.035,1.055l-6.645,0.527
		c0-1.453-0.129-2.59-0.387-3.41c-0.469-1.43-1.195-2.637-2.18-3.621s-2.338-1.775-4.061-2.373s-3.65-0.896-5.783-0.896
		c-3.75,0-6.668,0.844-8.754,2.531c-1.594,1.289-2.391,3-2.391,5.133c0,1.266,0.328,2.396,0.984,3.393s1.84,1.975,3.551,2.936
		c1.219,0.68,4.113,2.027,8.684,4.043c3.703,1.641,6.258,2.93,7.664,3.867c1.875,1.242,3.316,2.748,4.324,4.518
		s1.512,3.779,1.512,6.029c0,2.789-0.85,5.361-2.549,7.717s-4.049,4.178-7.049,5.467s-6.434,1.934-10.301,1.934
		c-5.836,0-10.6-1.271-14.291-3.814S1459.271,989.801,1459.247,983.191L1459.247,983.191z"/>
	<path id="path3404" d="M1500.837,999.855l29.215-51.539h8.121l8.508,51.539h-6.68l-2.496-14.836h-20.848l-8.262,14.836H1500.837z
		 M1519.61,979.711h17.051l-2.004-12.938c-0.773-5.133-1.254-9.41-1.441-12.832c-1.172,2.953-2.883,6.457-5.133,10.512
		L1519.61,979.711z"/>
	<path id="path3406" d="M1553.888,999.855l10.793-51.539h6.68l8.684,19.336c2.648,5.906,4.746,10.875,6.293,14.906
		c0.891,2.344,1.922,5.508,3.094,9.492c0.633-4.336,1.43-8.813,2.391-13.43l6.328-30.305h6.715l-10.758,51.539h-6.82l-12.797-29.777
		c-2.273-5.25-4.043-9.879-5.309-13.887c-0.352,3.352-1.031,7.465-2.039,12.34l-6.539,31.324H1553.888z"/>
</g>
<text transform="matrix(1 0 0 1 1575.5498 912.2841)" font-family="'Arial-BoldMT'" font-size="40">Astarote</text>
<text transform="matrix(1 0 0 1 1690.0605 1098.8895)" font-family="'Arial-BoldMT'" font-size="40">Edrei</text>
<text transform="matrix(1 0 0 1 1355.0195 1147.66)" font-family="'Arial-BoldMT'" font-size="40">Camom</text>
<text transform="matrix(1 0 0 1 1531.0195 1251.5697)" font-family="'Arial-BoldMT'" font-size="40">Ramote-Galaade</text>
<text transform="matrix(1 0 0 1 1268.0801 1465.7401)" font-family="'Arial-BoldMT'" font-size="40">Zafom</text>
<text transform="matrix(1 0 0 1 1344.4199 1531.4799)" font-family="'Arial-BoldMT'" font-size="40">Mahanaim</text>
<text transform="matrix(1 0 0 1 1526.7803 2004.3593)" font-family="'Arial-BoldMT'" font-size="40">Beser</text>
<text transform="matrix(1 0 0 1 1539.5 1923.7802)" font-family="'Arial-BoldMT'" font-size="40">Mefaate</text>
<text transform="matrix(1 0 0 1 803.9814 1039.5204)" font-family="'Arial-BoldMT'" font-size="40">Helcate</text>
<text transform="matrix(1 0 0 1 827.0068 963.1757)" font-family="'Arial-BoldMT'" font-size="40">Acsafe</text>
<text transform="matrix(1 0 0 1 1160.0498 959.9501)" font-family="'Arial-BoldMT'" font-size="40">Camate</text>
<text transform="matrix(1 0 0 1 1055.1802 1043.37)" font-family="'Arial-BoldMT'" font-size="30">Monte Tabor</text>
<text transform="matrix(1 0 0 1 871.5381 1597.2098)" font-family="'Arial-BoldMT'" font-size="40">Piratom</text>
<text transform="matrix(1 0 0 1 890.6221 1446.66)" font-family="'Arial-BoldMT'" font-size="40">Samir</text>
<path id="path2801" d="M1005.097,1376.508l2.529,6.097l6.586,0.453l-5.017,4.29l1.604,6.404l-5.631-3.446l-5.595,3.505l1.538-6.42
	l-5.063-4.237l6.581-0.522L1005.097,1376.508L1005.097,1376.508z"/>
<text transform="matrix(1 0 0 1 1022.1001 1404.2499)" font-family="'Arial-BoldMT'" font-size="40">Tirza</text>
<text transform="matrix(1 0 0 1 429.4448 1658.7098)" font-family="'Arial-BoldMT'" font-size="40">Gate-Rimom</text>
<text transform="matrix(1 0 0 1 1215.2998 763.8466)" font-family="'Arial-BoldMT'" font-size="40">Hazor</text>
<text transform="matrix(1 0 0 1 972.3486 191.3036)" font-family="'Arial-BoldMT'" font-size="40">Sídon</text>
<text transform="matrix(1 0 0 1 858.3384 488.9227)" font-family="'Arial-BoldMT'" font-size="40">Tiro</text>
<text transform="matrix(1 0 0 1 1231.3203 440.1132)" font-family="'Arial-BoldMT'" font-size="40">Iiom</text>
<text transform="matrix(1 0 0 1 692.064 2084.1299)" font-family="'Arial-BoldMT'" font-size="40">Jarmute</text>
<text transform="matrix(1 0 0 1 1262.1084 2605.5898)" font-family="'Arial-BoldMT'" font-size="40">Quir-Haresete</text>
<text transform="matrix(1 0 0 1 1069.8999 1205.3661)" font-family="'Arial-BoldMT'" font-size="40">Jezreel</text>
<text transform="matrix(1 0 0 1 1084.8379 1165.2997)" font-family="'Arial-BoldMT'" font-size="40">Jáfia</text>
<path id="path2732" d="M616.085,1874.275l2.529,6.097l6.586,0.453l-5.017,4.29l1.604,6.403l-5.631-3.445l-5.595,3.505l1.537-6.42
	l-5.062-4.237l6.581-0.522L616.085,1874.275z"/>
<path id="path2734" d="M555.253,1854.778l2.529,6.097l6.586,0.453l-5.017,4.29l1.604,6.404l-5.631-3.446l-5.595,3.505l1.538-6.42
	l-5.063-4.237l6.581-0.522L555.253,1854.778L555.253,1854.778z"/>
<text transform="matrix(1 0 0 1 490.8887 1846.1971)" font-family="'Arial-BoldMT'" font-size="40">Elteque</text>
<text transform="matrix(1 0 0 1 569.7139 1917.2352)" font-family="'Arial-BoldMT'" font-size="40">Gibetom</text>
<rect id="rect5607" x="44.818" y="48.32" fill="#FFFFFF" stroke="#000000" stroke-width="4.8731" width="912.128" height="296.442"/>
<path id="path4256" stroke="#000000" stroke-width="2.9418" d="M1109.544,1077.345h-44.724l22.362-24.961L1109.544,1077.345z"/>
<path id="path3355-7" d="M964.141,2009.058l2.529,6.098l6.586,0.453l-5.017,4.29l1.604,6.403l-5.631-3.445l-5.594,3.505l1.537-6.42
	l-5.063-4.238l6.581-0.521L964.141,2009.058L964.141,2009.058z"/>
<g id="g4295" transform="translate(-5.243644,0)">
	<g id="g5960" transform="matrix(1.6451324,0,0,1.6451396,-138.04834,-1692.9075)">
		<g id="text17057" transform="scale(1.0299372,0.970933)">
			<path id="path4277" d="M110.683,1287.789c-0.729,0-1.279,0.4-1.648,1.199s-0.555,2.001-0.555,3.605
				c0,1.599,0.185,2.798,0.555,3.598c0.37,0.8,0.919,1.199,1.648,1.199c0.734,0,1.285-0.4,1.652-1.199
				c0.367-0.799,0.551-1.999,0.551-3.598c0-1.604-0.184-2.806-0.551-3.605C111.968,1288.189,111.417,1287.789,110.683,1287.789z
				 M110.683,1286.539c1.177,0,2.075,0.517,2.695,1.551c0.62,1.034,0.93,2.535,0.93,4.504c0,1.964-0.31,3.462-0.93,4.496
				s-1.518,1.551-2.695,1.551c-1.177,0-2.075-0.517-2.695-1.551s-0.93-2.532-0.93-4.496c0-1.969,0.31-3.47,0.93-4.504
				C108.607,1287.056,109.506,1286.539,110.683,1286.539z"/>
		</g>
		<g id="text17061" transform="scale(1.0299372,0.970933)">
			<path id="path4280" d="M632.123,1297.086h2.32v-8.899l-2.531,0.563v-1.437l2.516-0.563h1.422v10.336h2.32v1.328h-6.047V1297.086z
				"/>
			<path id="path4282" d="M644.069,1287.789c-0.729,0-1.279,0.4-1.648,1.199c-0.37,0.8-0.555,2.001-0.555,3.605
				c0,1.599,0.185,2.798,0.555,3.598c0.37,0.8,0.919,1.199,1.648,1.199c0.734,0,1.285-0.4,1.652-1.199
				c0.367-0.799,0.55-1.999,0.55-3.598c0-1.604-0.183-2.806-0.55-3.605C645.354,1288.189,644.803,1287.789,644.069,1287.789z
				 M644.069,1286.539c1.177,0,2.076,0.517,2.695,1.551c0.62,1.034,0.93,2.535,0.93,4.504c0,1.964-0.31,3.462-0.93,4.496
				c-0.62,1.034-1.518,1.551-2.695,1.551c-1.177,0-2.075-0.517-2.696-1.551c-0.62-1.034-0.93-2.532-0.93-4.496
				c0-1.969,0.31-3.47,0.93-4.504C641.993,1287.056,642.891,1286.539,644.069,1286.539z"/>
			<path id="path4284" d="M653.225,1287.789c-0.729,0-1.278,0.4-1.648,1.199c-0.369,0.8-0.555,2.001-0.555,3.605
				c0,1.599,0.185,2.798,0.555,3.598c0.37,0.8,0.919,1.199,1.648,1.199c0.735,0,1.285-0.4,1.652-1.199
				c0.367-0.799,0.551-1.999,0.551-3.598c0-1.604-0.184-2.806-0.551-3.605C654.51,1288.189,653.96,1287.789,653.225,1287.789z
				 M653.225,1286.539c1.177,0,2.075,0.517,2.696,1.551c0.62,1.034,0.93,2.535,0.93,4.504c0,1.964-0.31,3.462-0.93,4.496
				c-0.62,1.034-1.518,1.551-2.696,1.551c-1.177,0-2.075-0.517-2.695-1.551c-0.62-1.034-0.93-2.532-0.93-4.496
				c0-1.969,0.309-3.47,0.93-4.504C651.149,1287.056,652.048,1286.539,653.225,1286.539z"/>
		</g>
		<g id="text17065" transform="scale(1.0299372,0.970933)">
			<path id="path4287" d="M364.936,1284.391c-0.63,1.198-1.097,2.382-1.402,3.554c-0.305,1.172-0.457,2.359-0.457,3.563
				c0,1.203,0.154,2.395,0.461,3.574c0.307,1.18,0.773,2.366,1.398,3.559h-1.125c-0.708-1.224-1.237-2.427-1.586-3.609
				c-0.349-1.182-0.524-2.357-0.524-3.523c0-1.162,0.175-2.331,0.524-3.508c0.349-1.177,0.877-2.38,1.586-3.609H364.936z"/>
			<path id="path4289" d="M367.397,1284.375h1.305v7.18l3.859-3.774h1.656l-4.18,4.094l4.351,4.656h-1.688l-4-4.274v4.274h-1.305
				V1284.375z"/>
			<path id="path4291" d="M381.92,1289.461c0.328-0.646,0.716-1.122,1.164-1.43s0.976-0.461,1.586-0.461
				c0.823,0,1.457,0.319,1.903,0.957c0.445,0.638,0.668,1.546,0.668,2.723v5.282h-1.305v-5.235c0-0.839-0.133-1.461-0.398-1.867
				c-0.266-0.406-0.674-0.609-1.226-0.609c-0.667,0-1.195,0.247-1.586,0.742s-0.586,1.169-0.586,2.023v4.945h-1.297v-5.234
				c0-0.844-0.134-1.468-0.402-1.871c-0.268-0.404-0.681-0.605-1.238-0.605c-0.662,0-1.186,0.248-1.575,0.746
				c-0.388,0.497-0.582,1.171-0.582,2.019v4.945h-1.305v-8.75h1.305v1.359c0.297-0.536,0.651-0.932,1.062-1.188
				c0.411-0.255,0.901-0.383,1.469-0.383c0.573,0,1.06,0.161,1.461,0.484C381.439,1288.378,381.733,1288.847,381.92,1289.461
				L381.92,1289.461z"/>
			<path id="path4293" d="M389.623,1284.391h1.125c0.703,1.229,1.229,2.432,1.578,3.609c0.349,1.177,0.524,2.346,0.524,3.508
				c0,1.167-0.175,2.341-0.524,3.523c-0.349,1.182-0.875,2.385-1.578,3.609h-1.125c0.62-1.193,1.084-2.379,1.391-3.559
				c0.307-1.179,0.461-2.371,0.461-3.574c0-1.203-0.154-2.391-0.461-3.563C390.707,1286.773,390.243,1285.589,389.623,1284.391z"/>
		</g>
	</g>
	<g id="g5952" transform="matrix(1.6451324,0,0,1.6451396,-138.04834,-1692.9075)">
		<g id="text17071" transform="scale(1.0299372,0.970933)">
			<path id="path4259" d="M110.683,1323.424c-0.729,0-1.279,0.4-1.648,1.199c-0.37,0.8-0.555,2.002-0.555,3.606
				c0,1.599,0.185,2.798,0.555,3.597c0.37,0.8,0.919,1.199,1.648,1.199c0.734,0,1.285-0.4,1.652-1.199
				c0.367-0.8,0.551-1.999,0.551-3.597c0-1.604-0.184-2.806-0.551-3.606C111.968,1323.824,111.417,1323.424,110.683,1323.424z
				 M110.683,1322.174c1.177,0,2.075,0.517,2.695,1.551c0.62,1.034,0.93,2.535,0.93,4.504c0,1.964-0.31,3.462-0.93,4.496
				s-1.518,1.55-2.695,1.55c-1.177,0-2.075-0.517-2.695-1.55s-0.93-2.532-0.93-4.496c0-1.969,0.31-3.47,0.93-4.504
				C108.607,1322.691,109.506,1322.174,110.683,1322.174z"/>
		</g>
		<g id="text17075" transform="scale(1.0299372,0.970933)">
			<path id="path4262" d="M621.056,1327.588c-0.636,0-1.139,0.242-1.512,0.726c-0.372,0.485-0.559,1.149-0.559,1.992
				c0,0.838,0.186,1.502,0.559,1.988c0.372,0.487,0.876,0.731,1.512,0.731c0.641,0,1.147-0.243,1.52-0.731
				c0.372-0.487,0.558-1.15,0.558-1.988c0-0.844-0.186-1.508-0.558-1.992C622.203,1327.83,621.697,1327.588,621.056,1327.588z
				 M623.876,1322.643v1.437c-0.354-0.187-0.714-0.33-1.078-0.429c-0.365-0.099-0.724-0.148-1.078-0.148
				c-0.937,0-1.654,0.351-2.148,1.054c-0.495,0.703-0.776,1.766-0.844,3.188c0.276-0.454,0.622-0.801,1.039-1.043
				c0.417-0.242,0.875-0.363,1.375-0.363c1.057,0,1.892,0.355,2.504,1.066c0.612,0.711,0.918,1.678,0.918,2.902
				c0,1.198-0.319,2.159-0.957,2.883s-1.489,1.086-2.551,1.086c-1.213,0-2.141-0.517-2.781-1.55
				c-0.641-1.034-0.961-2.532-0.961-4.496c0-1.844,0.393-3.314,1.18-4.411c0.787-1.096,1.844-1.644,3.172-1.644
				c0.354,0,0.714,0.039,1.078,0.117C623.109,1322.369,623.486,1322.487,623.876,1322.643L623.876,1322.643z"/>
			<path id="path4265" d="M630.04,1323.424c-0.729,0-1.278,0.4-1.648,1.199c-0.369,0.8-0.555,2.002-0.555,3.606
				c0,1.599,0.185,2.798,0.555,3.597c0.37,0.8,0.919,1.2,1.648,1.2c0.735,0,1.285-0.4,1.652-1.2c0.367-0.8,0.551-1.999,0.551-3.597
				c0-1.604-0.184-2.806-0.551-3.606C631.326,1323.824,630.775,1323.424,630.04,1323.424z M630.04,1322.174
				c1.177,0,2.075,0.517,2.696,1.551c0.62,1.034,0.93,2.535,0.93,4.504c0,1.964-0.31,3.462-0.93,4.496
				c-0.62,1.034-1.518,1.55-2.696,1.55c-1.177,0-2.076-0.517-2.695-1.55s-0.93-2.532-0.93-4.496c0-1.969,0.31-3.47,0.93-4.504
				C627.965,1322.691,628.863,1322.174,630.04,1322.174z"/>
		</g>
		<g id="text17079" transform="scale(1.0299372,0.970933)">
			<path id="path4268" d="M367.108,1322.19c-0.631,1.198-1.098,2.383-1.402,3.555c-0.305,1.172-0.458,2.36-0.458,3.563
				c0,1.203,0.154,2.395,0.461,3.575c0.307,1.179,0.773,2.365,1.399,3.558h-1.125c-0.708-1.224-1.237-2.427-1.586-3.609
				c-0.349-1.182-0.523-2.356-0.523-3.523c0-1.161,0.175-2.331,0.523-3.508c0.349-1.177,0.878-2.381,1.586-3.609H367.108z"/>
			<path id="path4270" d="M375.748,1327.26c0.329-0.646,0.716-1.122,1.164-1.429c0.448-0.307,0.977-0.461,1.586-0.461
				c0.823,0,1.457,0.319,1.903,0.957c0.445,0.638,0.667,1.546,0.668,2.723v5.281h-1.305v-5.235c0-0.838-0.133-1.461-0.399-1.867
				c-0.265-0.406-0.674-0.609-1.226-0.609c-0.666,0-1.195,0.247-1.586,0.742c-0.391,0.495-0.586,1.169-0.586,2.023v4.946h-1.297
				v-5.235c0-0.844-0.134-1.467-0.402-1.871c-0.269-0.404-0.681-0.605-1.239-0.605c-0.661,0-1.186,0.249-1.574,0.746
				c-0.388,0.498-0.582,1.171-0.582,2.02v4.945h-1.305v-8.75h1.305v1.36c0.297-0.537,0.651-0.932,1.063-1.187
				c0.411-0.256,0.901-0.383,1.469-0.383c0.573,0,1.06,0.161,1.461,0.485C375.267,1326.177,375.561,1326.646,375.748,1327.26
				L375.748,1327.26z"/>
			<path id="path4272" d="M383.655,1325.581h1.289v8.75h-1.289V1325.581z M383.655,1322.174h1.289v1.82h-1.289V1322.174z"/>
			<path id="path4274" d="M387.452,1322.19h1.125c0.703,1.229,1.229,2.432,1.578,3.609c0.349,1.177,0.523,2.346,0.523,3.508
				c0,1.167-0.174,2.341-0.523,3.523c-0.349,1.182-0.875,2.386-1.578,3.609h-1.125c0.62-1.193,1.084-2.379,1.391-3.558
				c0.307-1.18,0.461-2.372,0.461-3.575c0-1.203-0.154-2.391-0.461-3.563C388.535,1324.573,388.071,1323.388,387.452,1322.19z"/>
		</g>
	</g>
	<g id="g7562" transform="matrix(1.6451324,0,0,1.6451396,49.114145,-3004.0293)">
		<g id="g7559">
			<path id="path7557" fill="#FFFFFF" stroke="#000000" stroke-width="0.324" stroke-linecap="round" d="M0.162,2063.253h549.676
				v12.396H0.162V2063.253L0.162,2063.253z M0.162,2069.451h549.676"/>
		</g>
		<path id="path7553" stroke="#000000" stroke-width="0.324" d="M55.162,2063.253h54.676v6.198H55.162V2063.253z M165.162,2063.253
			h54.676v6.198h-54.676V2063.253z M275.162,2063.253h54.676v6.198h-54.676V2063.253z M385.162,2063.253h54.676v6.198h-54.676
			V2063.253z M495.162,2063.253h54.676v6.198h-54.676V2063.253L495.162,2063.253z M531.132,2069.451h18.706v6.198h-18.706V2069.451z
			 M0.162,2069.451h88.171v6.198H0.162V2069.451z M177.152,2069.451h88.171v6.198h-88.171V2069.451z M354.142,2069.451h88.171v6.198
			h-88.171V2069.451z"/>
	</g>
</g>
<g>
	<text transform="matrix(1 0 0 1 1435.8242 325.998)" fill="#231F20" font-family="'Arial-ItalicMT'" font-size="60">ARAMEUS</text>
</g>
<g>
	<text transform="matrix(1 0 0 1 1640.4063 1741.4102)" fill="#231F20" font-family="'Arial-ItalicMT'" font-size="60">AMONITAS</text>
</g>
<g>
	<text transform="matrix(1 0 0 1 1283.6182 2509.9854)" fill="#231F20" font-family="'Arial-ItalicMT'" font-size="60">MOABITAS</text>
</g>
<g>
	<text transform="matrix(1 0 0 1 992.4078 2839.1748)" fill="#231F20" font-family="'Arial-ItalicMT'" font-size="60">EDOM</text>
</g>
<text transform="matrix(0.1221 -0.9925 0.9925 0.1221 1192.7676 2386.0508)" fill="#0978AB" font-family="'Arial-BoldItalicMT'" font-size="50">Mar Morto</text>
<text transform="matrix(1 0 0 1 297.1314 614.8369)" fill="#0978AB" font-family="'Arial-BoldItalicMT'" font-size="70">Mar</text>
<text transform="matrix(1 0 0 1 139.5972 698.8369)" fill="#0978AB" font-family="'Arial-BoldItalicMT'" font-size="70">Mediterrâneo</text>
<text transform="matrix(1 0 0 1 40.4908 2737.1992)" fill="#231F20" font-family="'Arial-ItalicMT'" font-size="60">AMALEQUITAS</text>
<text transform="matrix(1 0 0 1 465.9395 2584.0518)" fill="#646464" font-family="'Arial-BoldMT'" font-size="70">SIMEÃO</text>
<text transform="matrix(1 0 0 1 874.918 2163.2295)" fill="#646464" font-family="'Arial-BoldMT'" font-size="70">JUDÁ</text>
<text transform="matrix(1 0 0 1 1287.6104 1727.46)" fill="#646464" font-family="'Arial-BoldMT'" font-size="70">GADE</text>
<text transform="matrix(1 0 0 1 779.0909 1756.583)" fill="#646464" font-family="'Arial-BoldMT'" font-size="70">EFRAIM</text>
<text transform="matrix(1 0 0 1 547.7657 1786.4697)" fill="#646464" font-family="'Arial-BoldMT'" font-size="70">DÃ</text>
<text transform="matrix(1 0 0 1 849.586 1942.0889)" fill="#646464" font-family="'Arial-BoldMT'" font-size="55">BENJAMIM</text>
<text transform="matrix(1 0 0 1 1339.6611 2151.0137)" fill="#646464" font-family="'Arial-BoldMT'" font-size="70">RÚBEN</text>
<text transform="matrix(1 0 0 1 751.543 1355.1504)" fill="#646464" font-family="'Arial-BoldMT'" font-size="70">MANASSÉS</text>
<text transform="matrix(1 0 0 1 1388.4951 1357.1504)" fill="#646464" font-family="'Arial-BoldMT'" font-size="70">MANASSÉS</text>
<text transform="matrix(0.3672 -0.9301 0.9301 0.3672 1071.4229 836.6533)" fill="#646464" font-family="'Arial-BoldMT'" font-size="70">NAFTALI</text>
<g>
	
		<text transform="matrix(0.5522 -0.8337 0.8337 0.5522 939.3951 1152.0874)" fill="#646464" font-family="'Arial-BoldMT'" font-size="55">ZEBULÃO</text>
</g>
<text transform="matrix(0.3932 -0.9195 0.9195 0.3932 978.5469 693.0913)" fill="#646464" font-family="'Arial-BoldMT'" font-size="70">ASER</text>
<g>
	<text transform="matrix(1 0 0 1 1014.1436 1125.7207)" fill="#646464" font-family="'Arial-BoldMT'" font-size="55">ISSACAR</text>
</g>
<text transform="matrix(0.6403 -0.7681 0.7681 0.6403 387.1065 2250.3398)" fill="#231F20" font-family="'Arial-ItalicMT'" font-size="60">FILISTEUS</text>
<text transform="matrix(1 0 0 1 381.2691 2852.6699)" font-family="'Arial-ItalicMT'" font-size="60">Deserto</text>
<text transform="matrix(1 0 0 1 392.9439 2924.6699)" font-family="'Arial-ItalicMT'" font-size="60">de Sim</text>
<text transform="matrix(1 0 0 1 175.7325 118.7881)"><tspan x="0" y="0" fill="#646464" font-family="'Arial-BoldMT'" font-size="70">AS DOZE TRIBOS</tspan><tspan x="110.827" y="84" fill="#646464" font-family="'Arial-BoldMT'" font-size="70">DE ISRAEL</tspan></text>
<text transform="matrix(1 0 0 1 213.1417 258.6533)" enable-background="new    "><tspan x="0" y="0" font-family="'Arial-BoldMT'" font-size="40">Em torno de 1200-1050 a.C.</tspan><tspan x="-59.951" y="48" font-family="'Arial-BoldMT'" font-size="40">(de acordo com o Livro de Josué)</tspan></text>
</svg>
